  0
SECTION
  2
HEADER
  9
$ACADVER
  1
AC1024
  9
$ACADMAINTVER
 70
6
  9
$DWGCODEPAGE
  3
ANSI_1252
  9
$LASTSAVEDBY
  1
ezdxf
  9
$INSBASE
 10
0.0
 20
0.0
 30
0.0
  9
$EXTMIN
 10
1e+20
 20
1e+20
 30
1e+20
  9
$EXTMAX
 10
-1e+20
 20
-1e+20
 30
-1e+20
  9
$LIMMIN
 10
0.0
 20
0.0
  9
$LIMMAX
 10
420.0
 20
297.0
  9
$ORTHOMODE
 70
0
  9
$REGENMODE
 70
1
  9
$FILLMODE
 70
1
  9
$QTEXTMODE
 70
0
  9
$MIRRTEXT
 70
1
  9
$LTSCALE
 40
1.0
  9
$ATTMODE
 70
1
  9
$TEXTSIZE
 40
2.5
  9
$TRACEWID
 40
1.0
  9
$TEXTSTYLE
  7
Standard
  9
$CLAYER
  8
0
  9
$CELTYPE
  6
ByLayer
  9
$CECOLOR
 62
256
  9
$CELTSCALE
 40
1.0
  9
$DISPSILH
 70
0
  9
$DIMSCALE
 40
1.0
  9
$DIMASZ
 40
2.5
  9
$DIMEXO
 40
0.625
  9
$DIMDLI
 40
3.75
  9
$DIMRND
 40
0.0
  9
$DIMDLE
 40
0.0
  9
$DIMEXE
 40
1.25
  9
$DIMTP
 40
0.0
  9
$DIMTM
 40
0.0
  9
$DIMTXT
 40
2.5
  9
$DIMCEN
 40
2.5
  9
$DIMTSZ
 40
0.0
  9
$DIMTOL
 70
0
  9
$DIMLIM
 70
0
  9
$DIMTIH
 70
0
  9
$DIMTOH
 70
0
  9
$DIMSE1
 70
0
  9
$DIMSE2
 70
0
  9
$DIMTAD
 70
1
  9
$DIMZIN
 70
8
  9
$DIMBLK
  1

  9
$DIMASO
 70
1
  9
$DIMSHO
 70
1
  9
$DIMPOST
  1

  9
$DIMAPOST
  1

  9
$DIMALT
 70
0
  9
$DIMALTD
 70
3
  9
$DIMALTF
 40
0.03937007874
  9
$DIMLFAC
 40
1.0
  9
$DIMTOFL
 70
1
  9
$DIMTVP
 40
0.0
  9
$DIMTIX
 70
0
  9
$DIMSOXD
 70
0
  9
$DIMSAH
 70
0
  9
$DIMBLK1
  1

  9
$DIMBLK2
  1

  9
$DIMSTYLE
  2
ISO-25
  9
$DIMCLRD
 70
0
  9
$DIMCLRE
 70
0
  9
$DIMCLRT
 70
0
  9
$DIMTFAC
 40
1.0
  9
$DIMGAP
 40
0.625
  9
$DIMJUST
 70
0
  9
$DIMSD1
 70
0
  9
$DIMSD2
 70
0
  9
$DIMTOLJ
 70
0
  9
$DIMTZIN
 70
8
  9
$DIMALTZ
 70
0
  9
$DIMALTTZ
 70
0
  9
$DIMUPT
 70
0
  9
$DIMDEC
 70
2
  9
$DIMTDEC
 70
2
  9
$DIMALTU
 70
2
  9
$DIMALTTD
 70
3
  9
$DIMTXSTY
  7
Standard
  9
$DIMAUNIT
 70
0
  9
$DIMADEC
 70
0
  9
$DIMALTRND
 40
0.0
  9
$DIMAZIN
 70
0
  9
$DIMDSEP
 70
44
  9
$DIMATFIT
 70
3
  9
$DIMFRAC
 70
0
  9
$DIMLDRBLK
  1

  9
$DIMLUNIT
 70
2
  9
$DIMLWD
 70
-2
  9
$DIMLWE
 70
-2
  9
$DIMTMOVE
 70
0
  9
$DIMFXL
 40
1.0
  9
$DIMFXLON
 70
0
  9
$DIMJOGANG
 40
0.785398163397
  9
$DIMTFILL
 70
0
  9
$DIMTFILLCLR
 70
0
  9
$DIMARCSYM
 70
0
  9
$DIMLTYPE
  6

  9
$DIMLTEX1
  6

  9
$DIMLTEX2
  6

  9
$DIMTXTDIRECTION
 70
0
  9
$LUNITS
 70
2
  9
$LUPREC
 70
4
  9
$SKETCHINC
 40
1.0
  9
$FILLETRAD
 40
10.0
  9
$AUNITS
 70
0
  9
$AUPREC
 70
2
  9
$MENU
  1
.
  9
$ELEVATION
 40
0.0
  9
$PELEVATION
 40
0.0
  9
$THICKNESS
 40
0.0
  9
$LIMCHECK
 70
0
  9
$CHAMFERA
 40
0.0
  9
$CHAMFERB
 40
0.0
  9
$CHAMFERC
 40
0.0
  9
$CHAMFERD
 40
0.0
  9
$SKPOLY
 70
0
  9
$TDCREATE
 40
2461180.92681713
  9
$TDUCREATE
 40
2458532.153996898
  9
$TDUPDATE
 40
2461180.92681713
  9
$TDUUPDATE
 40
2458532.1544311
  9
$TDINDWG
 40
0.0
  9
$TDUSRTIMER
 40
0.0
  9
$USRTIMER
 70
1
  9
$ANGBASE
 50
0.0
  9
$ANGDIR
 70
0
  9
$PDMODE
 70
0
  9
$PDSIZE
 40
0.0
  9
$PLINEWID
 40
0.0
  9
$SPLFRAME
 70
0
  9
$SPLINETYPE
 70
6
  9
$SPLINESEGS
 70
8
  9
$HANDSEED
  5
14A
  9
$SURFTAB1
 70
6
  9
$SURFTAB2
 70
6
  9
$SURFTYPE
 70
6
  9
$SURFU
 70
6
  9
$SURFV
 70
6
  9
$UCSBASE
  2

  9
$UCSNAME
  2

  9
$UCSORG
 10
0.0
 20
0.0
 30
0.0
  9
$UCSXDIR
 10
1.0
 20
0.0
 30
0.0
  9
$UCSYDIR
 10
0.0
 20
1.0
 30
0.0
  9
$UCSORTHOREF
  2

  9
$UCSORTHOVIEW
 70
0
  9
$UCSORGTOP
 10
0.0
 20
0.0
 30
0.0
  9
$UCSORGBOTTOM
 10
0.0
 20
0.0
 30
0.0
  9
$UCSORGLEFT
 10
0.0
 20
0.0
 30
0.0
  9
$UCSORGRIGHT
 10
0.0
 20
0.0
 30
0.0
  9
$UCSORGFRONT
 10
0.0
 20
0.0
 30
0.0
  9
$UCSORGBACK
 10
0.0
 20
0.0
 30
0.0
  9
$PUCSBASE
  2

  9
$PUCSNAME
  2

  9
$PUCSORG
 10
0.0
 20
0.0
 30
0.0
  9
$PUCSXDIR
 10
1.0
 20
0.0
 30
0.0
  9
$PUCSYDIR
 10
0.0
 20
1.0
 30
0.0
  9
$PUCSORTHOREF
  2

  9
$PUCSORTHOVIEW
 70
0
  9
$PUCSORGTOP
 10
0.0
 20
0.0
 30
0.0
  9
$PUCSORGBOTTOM
 10
0.0
 20
0.0
 30
0.0
  9
$PUCSORGLEFT
 10
0.0
 20
0.0
 30
0.0
  9
$PUCSORGRIGHT
 10
0.0
 20
0.0
 30
0.0
  9
$PUCSORGFRONT
 10
0.0
 20
0.0
 30
0.0
  9
$PUCSORGBACK
 10
0.0
 20
0.0
 30
0.0
  9
$USERI1
 70
0
  9
$USERI2
 70
0
  9
$USERI3
 70
0
  9
$USERI4
 70
0
  9
$USERI5
 70
0
  9
$USERR1
 40
0.0
  9
$USERR2
 40
0.0
  9
$USERR3
 40
0.0
  9
$USERR4
 40
0.0
  9
$USERR5
 40
0.0
  9
$WORLDVIEW
 70
1
  9
$SHADEDGE
 70
3
  9
$SHADEDIF
 70
70
  9
$TILEMODE
 70
1
  9
$MAXACTVP
 70
64
  9
$PINSBASE
 10
0.0
 20
0.0
 30
0.0
  9
$PLIMCHECK
 70
0
  9
$PEXTMIN
 10
1e+20
 20
1e+20
 30
1e+20
  9
$PEXTMAX
 10
-1e+20
 20
-1e+20
 30
-1e+20
  9
$PLIMMIN
 10
0.0
 20
0.0
  9
$PLIMMAX
 10
420.0
 20
297.0
  9
$UNITMODE
 70
0
  9
$VISRETAIN
 70
1
  9
$PLINEGEN
 70
0
  9
$PSLTSCALE
 70
1
  9
$TREEDEPTH
 70
3020
  9
$CMLSTYLE
  2
Standard
  9
$CMLJUST
 70
0
  9
$CMLSCALE
 40
20.0
  9
$PROXYGRAPHICS
 70
1
  9
$MEASUREMENT
 70
1
  9
$CELWEIGHT
370
-1
  9
$ENDCAPS
280
0
  9
$JOINSTYLE
280
0
  9
$LWDISPLAY
290
0
  9
$INSUNITS
 70
6
  9
$HYPERLINKBASE
  1

  9
$STYLESHEET
  1

  9
$XEDIT
290
1
  9
$CEPSNTYPE
380
0
  9
$PSTYLEMODE
290
1
  9
$FINGERPRINTGUID
  2
{880F1FB1-44C7-489C-9247-82B2D0B3348D}
  9
$VERSIONGUID
  2
{1CC3136F-F6D7-4177-937B-ACD781DDFE1B}
  9
$EXTNAMES
290
1
  9
$PSVPSCALE
 40
0.0
  9
$OLESTARTUP
290
0
  9
$SORTENTS
280
127
  9
$INDEXCTL
280
0
  9
$HIDETEXT
280
1
  9
$XCLIPFRAME
280
1
  9
$HALOGAP
280
0
  9
$OBSCOLOR
 70
257
  9
$OBSLTYPE
280
0
  9
$INTERSECTIONDISPLAY
280
0
  9
$INTERSECTIONCOLOR
 70
257
  9
$DIMASSOC
280
2
  9
$PROJECTNAME
  1

  9
$CAMERADISPLAY
290
0
  9
$LENSLENGTH
 40
50.0
  9
$CAMERAHEIGHT
 40
0.0
  9
$STEPSPERSEC
 40
24.0
  9
$STEPSIZE
 40
100.0
  9
$3DDWFPREC
 40
2.0
  9
$PSOLWIDTH
 40
0.005
  9
$PSOLHEIGHT
 40
0.08
  9
$LOFTANG1
 40
1.570796326795
  9
$LOFTANG2
 40
1.570796326795
  9
$LOFTMAG1
 40
0.0
  9
$LOFTMAG2
 40
0.0
  9
$LOFTPARAM
 70
7
  9
$LOFTNORMALS
280
1
  9
$LATITUDE
 40
37.795
  9
$LONGITUDE
 40
-122.394
  9
$NORTHDIRECTION
 40
0.0
  9
$TIMEZONE
 70
-8000
  9
$LIGHTGLYPHDISPLAY
280
1
  9
$TILEMODELIGHTSYNCH
280
1
  9
$CMATERIAL
347
20
  9
$SOLIDHIST
280
0
  9
$SHOWHIST
280
1
  9
$DWFFRAME
280
2
  9
$DGNFRAME
280
2
  9
$REALWORLDSCALE
290
1
  9
$INTERFERECOLOR
 62
256
  9
$CSHADOW
280
0
  9
$SHADOWPLANELOCATION
 40
0.0
  0
ENDSEC
  0
SECTION
  2
CLASSES
  0
CLASS
  1
ACDBDICTIONARYWDFLT
  2
AcDbDictionaryWithDefault
  3
ObjectDBX Classes
 90
0
 91
0
280
0
281
0
  0
CLASS
  1
SUN
  2
AcDbSun
  3
SCENEOE
 90
1153
 91
0
280
0
281
0
  0
CLASS
  1
VISUALSTYLE
  2
AcDbVisualStyle
  3
ObjectDBX Classes
 90
4095
 91
0
280
0
281
0
  0
CLASS
  1
MATERIAL
  2
AcDbMaterial
  3
ObjectDBX Classes
 90
1153
 91
0
280
0
281
0
  0
CLASS
  1
SCALE
  2
AcDbScale
  3
ObjectDBX Classes
 90
1153
 91
0
280
0
281
0
  0
CLASS
  1
TABLESTYLE
  2
AcDbTableStyle
  3
ObjectDBX Classes
 90
4095
 91
0
280
0
281
0
  0
CLASS
  1
MLEADERSTYLE
  2
AcDbMLeaderStyle
  3
ACDB_MLEADERSTYLE_CLASS
 90
4095
 91
0
280
0
281
0
  0
CLASS
  1
DICTIONARYVAR
  2
AcDbDictionaryVar
  3
ObjectDBX Classes
 90
0
 91
0
280
0
281
0
  0
CLASS
  1
CELLSTYLEMAP
  2
AcDbCellStyleMap
  3
ObjectDBX Classes
 90
1152
 91
0
280
0
281
0
  0
CLASS
  1
MENTALRAYRENDERSETTINGS
  2
AcDbMentalRayRenderSettings
  3
SCENEOE
 90
1024
 91
0
280
0
281
0
  0
CLASS
  1
ACDBDETAILVIEWSTYLE
  2
AcDbDetailViewStyle
  3
ObjectDBX Classes
 90
1025
 91
0
280
0
281
0
  0
CLASS
  1
ACDBSECTIONVIEWSTYLE
  2
AcDbSectionViewStyle
  3
ObjectDBX Classes
 90
1025
 91
0
280
0
281
0
  0
CLASS
  1
RASTERVARIABLES
  2
AcDbRasterVariables
  3
ISM
 90
0
 91
0
280
0
281
0
  0
CLASS
  1
LAYOUT
  2
AcDbLayout
  3
ObjectDBX Classes
 90
0
 91
0
280
0
281
0
  0
CLASS
  1
ACDBPLACEHOLDER
  2
AcDbPlaceHolder
  3
ObjectDBX Classes
 90
0
 91
0
280
0
281
0
  0
ENDSEC
  0
SECTION
  2
TABLES
  0
TABLE
  2
VPORT
  5
8
330
0
100
AcDbSymbolTable
 70
1
  0
VPORT
  5
23
330
8
100
AcDbSymbolTableRecord
100
AcDbViewportTableRecord
  2
*Active
 70
0
 10
0.0
 20
0.0
 11
1.0
 21
1.0
 12
0.0
 22
0.0
 13
0.0
 23
0.0
 14
0.5
 24
0.5
 15
0.5
 25
0.5
 16
0.0
 26
0.0
 36
1.0
 17
0.0
 27
0.0
 37
0.0
 40
1000.0
 41
1.34
 42
50.0
 43
0.0
 44
0.0
 50
0.0
 51
0.0
 71
0
 72
1000
 73
1
 74
3
 75
0
 76
0
 77
0
 78
0
281
0
 65
0
146
0.0
  0
ENDTAB
  0
TABLE
  2
LTYPE
  5
2
330
0
100
AcDbSymbolTable
 70
3
  0
LTYPE
  5
24
330
2
100
AcDbSymbolTableRecord
100
AcDbLinetypeTableRecord
  2
ByBlock
 70
0
  3

 72
65
 73
0
 40
0.0
  0
LTYPE
  5
25
330
2
100
AcDbSymbolTableRecord
100
AcDbLinetypeTableRecord
  2
ByLayer
 70
0
  3

 72
65
 73
0
 40
0.0
  0
LTYPE
  5
26
330
2
100
AcDbSymbolTableRecord
100
AcDbLinetypeTableRecord
  2
Continuous
 70
0
  3

 72
65
 73
0
 40
0.0
  0
ENDTAB
  0
TABLE
  2
LAYER
  5
1
330
0
100
AcDbSymbolTable
 70
5
  0
LAYER
  5
27
330
1
100
AcDbSymbolTableRecord
100
AcDbLayerTableRecord
  2
0
 70
0
 62
7
  6
Continuous
370
-3
390
13
347
21
  0
LAYER
  5
28
330
1
100
AcDbSymbolTableRecord
100
AcDbLayerTableRecord
  2
Defpoints
 70
0
 62
7
  6
Continuous
290
0
370
-3
390
13
347
21
  0
LAYER
  5
2F
330
1
100
AcDbSymbolTableRecord
100
AcDbLayerTableRecord
  2
1-ARCHITECTURE
 70
0
 62
7
  6
Continuous
370
35
390
13
347
21
  0
LAYER
  5
30
330
1
100
AcDbSymbolTableRecord
100
AcDbLayerTableRecord
  2
2-LIGHTING_RIGGING
 70
0
 62
4
  6
Continuous
370
25
390
13
347
21
  0
LAYER
  5
31
330
1
100
AcDbSymbolTableRecord
100
AcDbLayerTableRecord
  2
3-ANNOTATIONS
 70
0
 62
3
  6
Continuous
370
13
390
13
347
21
  0
ENDTAB
  0
TABLE
  2
STYLE
  5
5
330
0
100
AcDbSymbolTable
 70
1
  0
STYLE
  5
29
330
5
100
AcDbSymbolTableRecord
100
AcDbTextStyleTableRecord
  2
Standard
 70
0
 40
0.0
 41
1.0
 50
0.0
 71
0
 42
2.5
  3
txt
  4

  0
ENDTAB
  0
TABLE
  2
VIEW
  5
7
330
0
100
AcDbSymbolTable
 70
0
  0
ENDTAB
  0
TABLE
  2
UCS
  5
6
330
0
100
AcDbSymbolTable
 70
0
  0
ENDTAB
  0
TABLE
  2
APPID
  5
3
330
0
100
AcDbSymbolTable
 70
3
  0
APPID
  5
2A
330
3
100
AcDbSymbolTableRecord
100
AcDbRegAppTableRecord
  2
ACAD
 70
0
  0
APPID
  5
147
330
3
100
AcDbSymbolTableRecord
100
AcDbRegAppTableRecord
  2
HATCHBACKGROUNDCOLOR
 70
0
  0
APPID
  5
148
330
3
100
AcDbSymbolTableRecord
100
AcDbRegAppTableRecord
  2
EZDXF
 70
0
  0
ENDTAB
  0
TABLE
  2
DIMSTYLE
  5
4
330
0
100
AcDbSymbolTable
 70
1
100
AcDbDimStyleTable
  0
DIMSTYLE
105
2B
330
4
100
AcDbSymbolTableRecord
100
AcDbDimStyleTableRecord
  2
Standard
 70
0
 40
1.0
 41
2.5
 42
0.625
 43
3.75
 44
1.25
 45
0.0
 46
0.0
 47
0.0
 48
0.0
 49
2.5
140
2.5
141
2.5
142
0.0
143
0.03937007874
144
1.0
145
0.0
146
1.0
147
0.625
148
0.0
 69
0
 70
0
 71
0
 72
0
 73
0
 74
0
 75
0
 76
0
 77
1
 78
8
 79
3
170
0
171
3
172
1
173
0
174
0
175
0
176
0
177
0
178
0
179
2
271
2
272
2
273
2
274
3
275
0
276
0
277
2
278
44
279
0
280
0
281
0
282
0
283
0
284
8
285
0
286
0
288
0
289
3
290
0
371
-2
372
-2
  0
ENDTAB
  0
TABLE
  2
BLOCK_RECORD
  5
9
330
0
100
AcDbSymbolTable
 70
2
  0
BLOCK_RECORD
  5
17
330
9
100
AcDbSymbolTableRecord
100
AcDbBlockTableRecord
  2
*Model_Space
340
1A
 70
0
280
1
281
0
  0
BLOCK_RECORD
  5
1B
330
9
100
AcDbSymbolTableRecord
100
AcDbBlockTableRecord
  2
*Paper_Space
340
1E
 70
0
280
1
281
0
  0
ENDTAB
  0
ENDSEC
  0
SECTION
  2
BLOCKS
  0
BLOCK
  5
18
330
17
100
AcDbEntity
  8
0
100
AcDbBlockBegin
  2
*Model_Space
 70
0
 10
0.0
 20
0.0
 30
0.0
  3
*Model_Space
  1

  0
ENDBLK
  5
19
330
17
100
AcDbEntity
  8
0
100
AcDbBlockEnd
  0
BLOCK
  5
1C
330
1B
100
AcDbEntity
  8
0
100
AcDbBlockBegin
  2
*Paper_Space
 70
0
 10
0.0
 20
0.0
 30
0.0
  3
*Paper_Space
  1

  0
ENDBLK
  5
1D
330
1B
100
AcDbEntity
  8
0
100
AcDbBlockEnd
  0
ENDSEC
  0
SECTION
  2
ENTITIES
  0
LWPOLYLINE
  5
32
330
17
100
AcDbEntity
  8
1-ARCHITECTURE
 62
9
100
AcDbPolyline
 90
5
 70
0
 10
0.0
 20
10000.0
 10
1000.0
 20
10000.0
 10
1000.0
 20
9400.0
 10
0.0
 20
9400.0
 10
0.0
 20
10000.0
  0
LWPOLYLINE
  5
33
330
17
100
AcDbEntity
  8
1-ARCHITECTURE
 62
7
100
AcDbPolyline
 90
5
 70
0
 10
0.0
 20
9992.5
 10
1000.0
 20
9992.5
 10
1000.0
 20
10007.5
 10
0.0
 20
10007.5
 10
0.0
 20
9992.5
  0
LWPOLYLINE
  5
34
330
17
100
AcDbEntity
  8
1-ARCHITECTURE
 62
7
100
AcDbPolyline
 90
5
 70
0
 10
-7.5
 20
10000.0
 10
-7.5
 20
9400.0
 10
7.5
 20
9400.0
 10
7.5
 20
10000.0
 10
-7.5
 20
10000.0
  0
LWPOLYLINE
  5
35
330
17
100
AcDbEntity
  8
1-ARCHITECTURE
 62
7
100
AcDbPolyline
 90
5
 70
0
 10
992.5000000000001
 20
10000.0
 10
992.5000000000001
 20
9400.0
 10
1007.4999999999999
 20
9400.0
 10
1007.4999999999999
 20
10000.0
 10
992.5000000000001
 20
10000.0
  0
LWPOLYLINE
  5
36
330
17
100
AcDbEntity
  8
1-ARCHITECTURE
 62
7
100
AcDbPolyline
 90
5
 70
0
 10
0.0
 20
9395.0
 10
300.0
 20
9395.0
 10
300.0
 20
9405.0
 10
0.0
 20
9405.0
 10
0.0
 20
9395.0
  0
LWPOLYLINE
  5
37
330
17
100
AcDbEntity
  8
1-ARCHITECTURE
 62
7
100
AcDbPolyline
 90
5
 70
0
 10
700.0
 20
9395.0
 10
1000.0
 20
9395.0
 10
1000.0
 20
9405.0
 10
700.0
 20
9405.0
 10
700.0
 20
9395.0
  0
LWPOLYLINE
  5
38
330
17
100
AcDbEntity
  8
1-ARCHITECTURE
 62
7
100
AcDbPolyline
 90
5
 70
0
 10
495.0
 20
10000.0
 10
495.0
 20
9700.0
 10
505.0
 20
9700.0
 10
505.0
 20
10000.0
 10
495.0
 20
10000.0
  0
LINE
  5
39
330
17
100
AcDbEntity
  8
1-ARCHITECTURE
 62
8
100
AcDbLine
 10
300.0
 20
9400.0
 30
0.0
 11
700.0
 21
9400.0
 31
0.0
  0
ARC
  5
3A
330
17
100
AcDbEntity
  8
1-ARCHITECTURE
  6
DASHED
 62
8
100
AcDbCircle
 10
300.0
 20
9400.0
 30
0.0
 40
400.0
100
AcDbArc
 50
0.0
 51
90.0
  0
LWPOLYLINE
  5
3B
330
17
100
AcDbEntity
  8
1-ARCHITECTURE
 62
9
100
AcDbPolyline
 90
5
 70
0
 10
160.0
 20
9640.0
 10
340.0
 20
9640.0
 10
340.0
 20
9560.0
 10
160.0
 20
9560.0
 10
160.0
 20
9640.0
  0
LWPOLYLINE
  5
3C
330
17
100
AcDbEntity
  8
1-ARCHITECTURE
 62
9
100
AcDbPolyline
 90
5
 70
0
 10
650.0
 20
9850.0
 10
850.0
 20
9850.0
 10
850.0
 20
9750.0
 10
650.0
 20
9750.0
 10
650.0
 20
9850.0
  0
LWPOLYLINE
  5
3D
330
17
100
AcDbEntity
  8
1-ARCHITECTURE
 62
8
100
AcDbPolyline
 90
5
 70
0
 10
175.0
 20
9705.0
 10
225.0
 20
9705.0
 10
225.0
 20
9655.0
 10
175.0
 20
9655.0
 10
175.0
 20
9705.0
  0
LWPOLYLINE
  5
3E
330
17
100
AcDbEntity
  8
1-ARCHITECTURE
 62
8
100
AcDbPolyline
 90
5
 70
0
 10
275.0
 20
9705.0
 10
325.0
 20
9705.0
 10
325.0
 20
9655.0
 10
275.0
 20
9655.0
 10
275.0
 20
9705.0
  0
LWPOLYLINE
  5
3F
330
17
100
AcDbEntity
  8
1-ARCHITECTURE
 62
8
100
AcDbPolyline
 90
5
 70
0
 10
225.0
 20
9495.0
 10
175.0
 20
9495.0
 10
175.0
 20
9545.0
 10
225.0
 20
9545.0
 10
225.0
 20
9495.0
  0
LWPOLYLINE
  5
40
330
17
100
AcDbEntity
  8
1-ARCHITECTURE
 62
8
100
AcDbPolyline
 90
5
 70
0
 10
325.0
 20
9495.0
 10
275.0
 20
9495.0
 10
275.0
 20
9545.0
 10
325.0
 20
9545.0
 10
325.0
 20
9495.0
  0
LWPOLYLINE
  5
41
330
17
100
AcDbEntity
  8
1-ARCHITECTURE
 62
6
100
AcDbPolyline
 90
5
 70
0
 10
50.0
 20
9977.5
 10
250.0
 20
9977.5
 10
250.0
 20
9962.5
 10
50.0
 20
9962.5
 10
50.0
 20
9977.5
  0
LWPOLYLINE
  5
42
330
17
100
AcDbEntity
  8
1-ARCHITECTURE
 62
6
100
AcDbPolyline
 90
5
 70
0
 10
525.0
 20
9977.5
 10
775.0
 20
9977.5
 10
775.0
 20
9962.5
 10
525.0
 20
9962.5
 10
525.0
 20
9977.5
  0
LWPOLYLINE
  5
43
330
17
100
AcDbEntity
  8
1-ARCHITECTURE
 62
6
100
AcDbPolyline
 90
5
 70
0
 10
300.0
 20
9992.5
 10
500.0
 20
9992.5
 10
500.0
 20
9987.5
 10
300.0
 20
9987.5
 10
300.0
 20
9992.5
  0
CIRCLE
  5
44
330
17
100
AcDbEntity
  8
1-ARCHITECTURE
 62
3
100
AcDbCircle
 10
10.0
 20
9800.0
 30
0.0
 40
3.0
  0
CIRCLE
  5
45
330
17
100
AcDbEntity
  8
1-ARCHITECTURE
 62
3
100
AcDbCircle
 10
990.0
 20
9800.0
 30
0.0
 40
3.0
  0
LINE
  5
46
330
17
100
AcDbEntity
  8
2-LIGHTING_RIGGING
 62
5
100
AcDbLine
 10
100.0
 20
9903.0
 30
0.0
 11
900.0
 21
9903.0
 31
0.0
  0
LINE
  5
47
330
17
100
AcDbEntity
  8
2-LIGHTING_RIGGING
 62
5
100
AcDbLine
 10
100.0
 20
9897.0
 30
0.0
 11
900.0
 21
9897.0
 31
0.0
  0
LINE
  5
48
330
17
100
AcDbEntity
  8
2-LIGHTING_RIGGING
 62
5
100
AcDbLine
 10
100.0
 20
9903.0
 30
0.0
 11
120.0
 21
9897.0
 31
0.0
  0
LINE
  5
49
330
17
100
AcDbEntity
  8
2-LIGHTING_RIGGING
 62
5
100
AcDbLine
 10
120.0
 20
9897.0
 30
0.0
 11
140.0
 21
9903.0
 31
0.0
  0
LINE
  5
4A
330
17
100
AcDbEntity
  8
2-LIGHTING_RIGGING
 62
5
100
AcDbLine
 10
140.0
 20
9903.0
 30
0.0
 11
160.0
 21
9897.0
 31
0.0
  0
LINE
  5
4B
330
17
100
AcDbEntity
  8
2-LIGHTING_RIGGING
 62
5
100
AcDbLine
 10
160.0
 20
9897.0
 30
0.0
 11
180.0
 21
9903.0
 31
0.0
  0
LINE
  5
4C
330
17
100
AcDbEntity
  8
2-LIGHTING_RIGGING
 62
5
100
AcDbLine
 10
180.0
 20
9903.0
 30
0.0
 11
200.0
 21
9897.0
 31
0.0
  0
LINE
  5
4D
330
17
100
AcDbEntity
  8
2-LIGHTING_RIGGING
 62
5
100
AcDbLine
 10
200.0
 20
9897.0
 30
0.0
 11
220.0
 21
9903.0
 31
0.0
  0
LINE
  5
4E
330
17
100
AcDbEntity
  8
2-LIGHTING_RIGGING
 62
5
100
AcDbLine
 10
220.0
 20
9903.0
 30
0.0
 11
240.0
 21
9897.0
 31
0.0
  0
LINE
  5
4F
330
17
100
AcDbEntity
  8
2-LIGHTING_RIGGING
 62
5
100
AcDbLine
 10
240.0
 20
9897.0
 30
0.0
 11
260.0
 21
9903.0
 31
0.0
  0
LINE
  5
50
330
17
100
AcDbEntity
  8
2-LIGHTING_RIGGING
 62
5
100
AcDbLine
 10
260.0
 20
9903.0
 30
0.0
 11
280.0
 21
9897.0
 31
0.0
  0
LINE
  5
51
330
17
100
AcDbEntity
  8
2-LIGHTING_RIGGING
 62
5
100
AcDbLine
 10
280.0
 20
9897.0
 30
0.0
 11
300.0
 21
9903.0
 31
0.0
  0
LINE
  5
52
330
17
100
AcDbEntity
  8
2-LIGHTING_RIGGING
 62
5
100
AcDbLine
 10
300.0
 20
9903.0
 30
0.0
 11
320.0
 21
9897.0
 31
0.0
  0
LINE
  5
53
330
17
100
AcDbEntity
  8
2-LIGHTING_RIGGING
 62
5
100
AcDbLine
 10
320.0
 20
9897.0
 30
0.0
 11
340.0
 21
9903.0
 31
0.0
  0
LINE
  5
54
330
17
100
AcDbEntity
  8
2-LIGHTING_RIGGING
 62
5
100
AcDbLine
 10
340.0
 20
9903.0
 30
0.0
 11
360.0
 21
9897.0
 31
0.0
  0
LINE
  5
55
330
17
100
AcDbEntity
  8
2-LIGHTING_RIGGING
 62
5
100
AcDbLine
 10
360.0
 20
9897.0
 30
0.0
 11
380.0
 21
9903.0
 31
0.0
  0
LINE
  5
56
330
17
100
AcDbEntity
  8
2-LIGHTING_RIGGING
 62
5
100
AcDbLine
 10
380.0
 20
9903.0
 30
0.0
 11
400.0
 21
9897.0
 31
0.0
  0
LINE
  5
57
330
17
100
AcDbEntity
  8
2-LIGHTING_RIGGING
 62
5
100
AcDbLine
 10
400.0
 20
9897.0
 30
0.0
 11
420.0
 21
9903.0
 31
0.0
  0
LINE
  5
58
330
17
100
AcDbEntity
  8
2-LIGHTING_RIGGING
 62
5
100
AcDbLine
 10
420.0
 20
9903.0
 30
0.0
 11
440.0
 21
9897.0
 31
0.0
  0
LINE
  5
59
330
17
100
AcDbEntity
  8
2-LIGHTING_RIGGING
 62
5
100
AcDbLine
 10
440.0
 20
9897.0
 30
0.0
 11
460.0
 21
9903.0
 31
0.0
  0
LINE
  5
5A
330
17
100
AcDbEntity
  8
2-LIGHTING_RIGGING
 62
5
100
AcDbLine
 10
460.0
 20
9903.0
 30
0.0
 11
480.0
 21
9897.0
 31
0.0
  0
LINE
  5
5B
330
17
100
AcDbEntity
  8
2-LIGHTING_RIGGING
 62
5
100
AcDbLine
 10
480.0
 20
9897.0
 30
0.0
 11
500.0
 21
9903.0
 31
0.0
  0
LINE
  5
5C
330
17
100
AcDbEntity
  8
2-LIGHTING_RIGGING
 62
5
100
AcDbLine
 10
500.0
 20
9903.0
 30
0.0
 11
520.0
 21
9897.0
 31
0.0
  0
LINE
  5
5D
330
17
100
AcDbEntity
  8
2-LIGHTING_RIGGING
 62
5
100
AcDbLine
 10
520.0
 20
9897.0
 30
0.0
 11
540.0
 21
9903.0
 31
0.0
  0
LINE
  5
5E
330
17
100
AcDbEntity
  8
2-LIGHTING_RIGGING
 62
5
100
AcDbLine
 10
540.0
 20
9903.0
 30
0.0
 11
560.0
 21
9897.0
 31
0.0
  0
LINE
  5
5F
330
17
100
AcDbEntity
  8
2-LIGHTING_RIGGING
 62
5
100
AcDbLine
 10
560.0
 20
9897.0
 30
0.0
 11
580.0
 21
9903.0
 31
0.0
  0
LINE
  5
60
330
17
100
AcDbEntity
  8
2-LIGHTING_RIGGING
 62
5
100
AcDbLine
 10
580.0
 20
9903.0
 30
0.0
 11
600.0
 21
9897.0
 31
0.0
  0
LINE
  5
61
330
17
100
AcDbEntity
  8
2-LIGHTING_RIGGING
 62
5
100
AcDbLine
 10
600.0
 20
9897.0
 30
0.0
 11
620.0
 21
9903.0
 31
0.0
  0
LINE
  5
62
330
17
100
AcDbEntity
  8
2-LIGHTING_RIGGING
 62
5
100
AcDbLine
 10
620.0
 20
9903.0
 30
0.0
 11
640.0
 21
9897.0
 31
0.0
  0
LINE
  5
63
330
17
100
AcDbEntity
  8
2-LIGHTING_RIGGING
 62
5
100
AcDbLine
 10
640.0
 20
9897.0
 30
0.0
 11
660.0
 21
9903.0
 31
0.0
  0
LINE
  5
64
330
17
100
AcDbEntity
  8
2-LIGHTING_RIGGING
 62
5
100
AcDbLine
 10
660.0
 20
9903.0
 30
0.0
 11
680.0
 21
9897.0
 31
0.0
  0
LINE
  5
65
330
17
100
AcDbEntity
  8
2-LIGHTING_RIGGING
 62
5
100
AcDbLine
 10
680.0
 20
9897.0
 30
0.0
 11
700.0
 21
9903.0
 31
0.0
  0
LINE
  5
66
330
17
100
AcDbEntity
  8
2-LIGHTING_RIGGING
 62
5
100
AcDbLine
 10
700.0
 20
9903.0
 30
0.0
 11
720.0
 21
9897.0
 31
0.0
  0
LINE
  5
67
330
17
100
AcDbEntity
  8
2-LIGHTING_RIGGING
 62
5
100
AcDbLine
 10
720.0
 20
9897.0
 30
0.0
 11
740.0
 21
9903.0
 31
0.0
  0
LINE
  5
68
330
17
100
AcDbEntity
  8
2-LIGHTING_RIGGING
 62
5
100
AcDbLine
 10
740.0
 20
9903.0
 30
0.0
 11
760.0
 21
9897.0
 31
0.0
  0
LINE
  5
69
330
17
100
AcDbEntity
  8
2-LIGHTING_RIGGING
 62
5
100
AcDbLine
 10
760.0
 20
9897.0
 30
0.0
 11
780.0
 21
9903.0
 31
0.0
  0
LINE
  5
6A
330
17
100
AcDbEntity
  8
2-LIGHTING_RIGGING
 62
5
100
AcDbLine
 10
780.0
 20
9903.0
 30
0.0
 11
800.0
 21
9897.0
 31
0.0
  0
LINE
  5
6B
330
17
100
AcDbEntity
  8
2-LIGHTING_RIGGING
 62
5
100
AcDbLine
 10
800.0
 20
9897.0
 30
0.0
 11
820.0
 21
9903.0
 31
0.0
  0
LINE
  5
6C
330
17
100
AcDbEntity
  8
2-LIGHTING_RIGGING
 62
5
100
AcDbLine
 10
820.0
 20
9903.0
 30
0.0
 11
840.0
 21
9897.0
 31
0.0
  0
LINE
  5
6D
330
17
100
AcDbEntity
  8
2-LIGHTING_RIGGING
 62
5
100
AcDbLine
 10
840.0
 20
9897.0
 30
0.0
 11
860.0
 21
9903.0
 31
0.0
  0
LINE
  5
6E
330
17
100
AcDbEntity
  8
2-LIGHTING_RIGGING
 62
5
100
AcDbLine
 10
860.0
 20
9903.0
 30
0.0
 11
880.0
 21
9897.0
 31
0.0
  0
LINE
  5
6F
330
17
100
AcDbEntity
  8
2-LIGHTING_RIGGING
 62
5
100
AcDbLine
 10
880.0
 20
9897.0
 30
0.0
 11
900.0
 21
9903.0
 31
0.0
  0
LINE
  5
70
330
17
100
AcDbEntity
  8
2-LIGHTING_RIGGING
 62
5
100
AcDbLine
 10
100.0
 20
9503.0
 30
0.0
 11
900.0
 21
9503.0
 31
0.0
  0
LINE
  5
71
330
17
100
AcDbEntity
  8
2-LIGHTING_RIGGING
 62
5
100
AcDbLine
 10
100.0
 20
9497.0
 30
0.0
 11
900.0
 21
9497.0
 31
0.0
  0
LINE
  5
72
330
17
100
AcDbEntity
  8
2-LIGHTING_RIGGING
 62
5
100
AcDbLine
 10
100.0
 20
9503.0
 30
0.0
 11
120.0
 21
9497.0
 31
0.0
  0
LINE
  5
73
330
17
100
AcDbEntity
  8
2-LIGHTING_RIGGING
 62
5
100
AcDbLine
 10
120.0
 20
9497.0
 30
0.0
 11
140.0
 21
9503.0
 31
0.0
  0
LINE
  5
74
330
17
100
AcDbEntity
  8
2-LIGHTING_RIGGING
 62
5
100
AcDbLine
 10
140.0
 20
9503.0
 30
0.0
 11
160.0
 21
9497.0
 31
0.0
  0
LINE
  5
75
330
17
100
AcDbEntity
  8
2-LIGHTING_RIGGING
 62
5
100
AcDbLine
 10
160.0
 20
9497.0
 30
0.0
 11
180.0
 21
9503.0
 31
0.0
  0
LINE
  5
76
330
17
100
AcDbEntity
  8
2-LIGHTING_RIGGING
 62
5
100
AcDbLine
 10
180.0
 20
9503.0
 30
0.0
 11
200.0
 21
9497.0
 31
0.0
  0
LINE
  5
77
330
17
100
AcDbEntity
  8
2-LIGHTING_RIGGING
 62
5
100
AcDbLine
 10
200.0
 20
9497.0
 30
0.0
 11
220.0
 21
9503.0
 31
0.0
  0
LINE
  5
78
330
17
100
AcDbEntity
  8
2-LIGHTING_RIGGING
 62
5
100
AcDbLine
 10
220.0
 20
9503.0
 30
0.0
 11
240.0
 21
9497.0
 31
0.0
  0
LINE
  5
79
330
17
100
AcDbEntity
  8
2-LIGHTING_RIGGING
 62
5
100
AcDbLine
 10
240.0
 20
9497.0
 30
0.0
 11
260.0
 21
9503.0
 31
0.0
  0
LINE
  5
7A
330
17
100
AcDbEntity
  8
2-LIGHTING_RIGGING
 62
5
100
AcDbLine
 10
260.0
 20
9503.0
 30
0.0
 11
280.0
 21
9497.0
 31
0.0
  0
LINE
  5
7B
330
17
100
AcDbEntity
  8
2-LIGHTING_RIGGING
 62
5
100
AcDbLine
 10
280.0
 20
9497.0
 30
0.0
 11
300.0
 21
9503.0
 31
0.0
  0
LINE
  5
7C
330
17
100
AcDbEntity
  8
2-LIGHTING_RIGGING
 62
5
100
AcDbLine
 10
300.0
 20
9503.0
 30
0.0
 11
320.0
 21
9497.0
 31
0.0
  0
LINE
  5
7D
330
17
100
AcDbEntity
  8
2-LIGHTING_RIGGING
 62
5
100
AcDbLine
 10
320.0
 20
9497.0
 30
0.0
 11
340.0
 21
9503.0
 31
0.0
  0
LINE
  5
7E
330
17
100
AcDbEntity
  8
2-LIGHTING_RIGGING
 62
5
100
AcDbLine
 10
340.0
 20
9503.0
 30
0.0
 11
360.0
 21
9497.0
 31
0.0
  0
LINE
  5
7F
330
17
100
AcDbEntity
  8
2-LIGHTING_RIGGING
 62
5
100
AcDbLine
 10
360.0
 20
9497.0
 30
0.0
 11
380.0
 21
9503.0
 31
0.0
  0
LINE
  5
80
330
17
100
AcDbEntity
  8
2-LIGHTING_RIGGING
 62
5
100
AcDbLine
 10
380.0
 20
9503.0
 30
0.0
 11
400.0
 21
9497.0
 31
0.0
  0
LINE
  5
81
330
17
100
AcDbEntity
  8
2-LIGHTING_RIGGING
 62
5
100
AcDbLine
 10
400.0
 20
9497.0
 30
0.0
 11
420.0
 21
9503.0
 31
0.0
  0
LINE
  5
82
330
17
100
AcDbEntity
  8
2-LIGHTING_RIGGING
 62
5
100
AcDbLine
 10
420.0
 20
9503.0
 30
0.0
 11
440.0
 21
9497.0
 31
0.0
  0
LINE
  5
83
330
17
100
AcDbEntity
  8
2-LIGHTING_RIGGING
 62
5
100
AcDbLine
 10
440.0
 20
9497.0
 30
0.0
 11
460.0
 21
9503.0
 31
0.0
  0
LINE
  5
84
330
17
100
AcDbEntity
  8
2-LIGHTING_RIGGING
 62
5
100
AcDbLine
 10
460.0
 20
9503.0
 30
0.0
 11
480.0
 21
9497.0
 31
0.0
  0
LINE
  5
85
330
17
100
AcDbEntity
  8
2-LIGHTING_RIGGING
 62
5
100
AcDbLine
 10
480.0
 20
9497.0
 30
0.0
 11
500.0
 21
9503.0
 31
0.0
  0
LINE
  5
86
330
17
100
AcDbEntity
  8
2-LIGHTING_RIGGING
 62
5
100
AcDbLine
 10
500.0
 20
9503.0
 30
0.0
 11
520.0
 21
9497.0
 31
0.0
  0
LINE
  5
87
330
17
100
AcDbEntity
  8
2-LIGHTING_RIGGING
 62
5
100
AcDbLine
 10
520.0
 20
9497.0
 30
0.0
 11
540.0
 21
9503.0
 31
0.0
  0
LINE
  5
88
330
17
100
AcDbEntity
  8
2-LIGHTING_RIGGING
 62
5
100
AcDbLine
 10
540.0
 20
9503.0
 30
0.0
 11
560.0
 21
9497.0
 31
0.0
  0
LINE
  5
89
330
17
100
AcDbEntity
  8
2-LIGHTING_RIGGING
 62
5
100
AcDbLine
 10
560.0
 20
9497.0
 30
0.0
 11
580.0
 21
9503.0
 31
0.0
  0
LINE
  5
8A
330
17
100
AcDbEntity
  8
2-LIGHTING_RIGGING
 62
5
100
AcDbLine
 10
580.0
 20
9503.0
 30
0.0
 11
600.0
 21
9497.0
 31
0.0
  0
LINE
  5
8B
330
17
100
AcDbEntity
  8
2-LIGHTING_RIGGING
 62
5
100
AcDbLine
 10
600.0
 20
9497.0
 30
0.0
 11
620.0
 21
9503.0
 31
0.0
  0
LINE
  5
8C
330
17
100
AcDbEntity
  8
2-LIGHTING_RIGGING
 62
5
100
AcDbLine
 10
620.0
 20
9503.0
 30
0.0
 11
640.0
 21
9497.0
 31
0.0
  0
LINE
  5
8D
330
17
100
AcDbEntity
  8
2-LIGHTING_RIGGING
 62
5
100
AcDbLine
 10
640.0
 20
9497.0
 30
0.0
 11
660.0
 21
9503.0
 31
0.0
  0
LINE
  5
8E
330
17
100
AcDbEntity
  8
2-LIGHTING_RIGGING
 62
5
100
AcDbLine
 10
660.0
 20
9503.0
 30
0.0
 11
680.0
 21
9497.0
 31
0.0
  0
LINE
  5
8F
330
17
100
AcDbEntity
  8
2-LIGHTING_RIGGING
 62
5
100
AcDbLine
 10
680.0
 20
9497.0
 30
0.0
 11
700.0
 21
9503.0
 31
0.0
  0
LINE
  5
90
330
17
100
AcDbEntity
  8
2-LIGHTING_RIGGING
 62
5
100
AcDbLine
 10
700.0
 20
9503.0
 30
0.0
 11
720.0
 21
9497.0
 31
0.0
  0
LINE
  5
91
330
17
100
AcDbEntity
  8
2-LIGHTING_RIGGING
 62
5
100
AcDbLine
 10
720.0
 20
9497.0
 30
0.0
 11
740.0
 21
9503.0
 31
0.0
  0
LINE
  5
92
330
17
100
AcDbEntity
  8
2-LIGHTING_RIGGING
 62
5
100
AcDbLine
 10
740.0
 20
9503.0
 30
0.0
 11
760.0
 21
9497.0
 31
0.0
  0
LINE
  5
93
330
17
100
AcDbEntity
  8
2-LIGHTING_RIGGING
 62
5
100
AcDbLine
 10
760.0
 20
9497.0
 30
0.0
 11
780.0
 21
9503.0
 31
0.0
  0
LINE
  5
94
330
17
100
AcDbEntity
  8
2-LIGHTING_RIGGING
 62
5
100
AcDbLine
 10
780.0
 20
9503.0
 30
0.0
 11
800.0
 21
9497.0
 31
0.0
  0
LINE
  5
95
330
17
100
AcDbEntity
  8
2-LIGHTING_RIGGING
 62
5
100
AcDbLine
 10
800.0
 20
9497.0
 30
0.0
 11
820.0
 21
9503.0
 31
0.0
  0
LINE
  5
96
330
17
100
AcDbEntity
  8
2-LIGHTING_RIGGING
 62
5
100
AcDbLine
 10
820.0
 20
9503.0
 30
0.0
 11
840.0
 21
9497.0
 31
0.0
  0
LINE
  5
97
330
17
100
AcDbEntity
  8
2-LIGHTING_RIGGING
 62
5
100
AcDbLine
 10
840.0
 20
9497.0
 30
0.0
 11
860.0
 21
9503.0
 31
0.0
  0
LINE
  5
98
330
17
100
AcDbEntity
  8
2-LIGHTING_RIGGING
 62
5
100
AcDbLine
 10
860.0
 20
9503.0
 30
0.0
 11
880.0
 21
9497.0
 31
0.0
  0
LINE
  5
99
330
17
100
AcDbEntity
  8
2-LIGHTING_RIGGING
 62
5
100
AcDbLine
 10
880.0
 20
9497.0
 30
0.0
 11
900.0
 21
9503.0
 31
0.0
  0
LINE
  5
9A
330
17
100
AcDbEntity
  8
2-LIGHTING_RIGGING
 62
5
100
AcDbLine
 10
503.0
 20
9900.0
 30
0.0
 11
503.0
 21
9500.0
 31
0.0
  0
LINE
  5
9B
330
17
100
AcDbEntity
  8
2-LIGHTING_RIGGING
 62
5
100
AcDbLine
 10
497.0
 20
9900.0
 30
0.0
 11
497.0
 21
9500.0
 31
0.0
  0
LINE
  5
9C
330
17
100
AcDbEntity
  8
2-LIGHTING_RIGGING
 62
5
100
AcDbLine
 10
503.0
 20
9900.0
 30
0.0
 11
497.0
 21
9880.0
 31
0.0
  0
LINE
  5
9D
330
17
100
AcDbEntity
  8
2-LIGHTING_RIGGING
 62
5
100
AcDbLine
 10
497.0
 20
9880.0
 30
0.0
 11
503.0
 21
9860.0
 31
0.0
  0
LINE
  5
9E
330
17
100
AcDbEntity
  8
2-LIGHTING_RIGGING
 62
5
100
AcDbLine
 10
503.0
 20
9860.0
 30
0.0
 11
497.0
 21
9840.0
 31
0.0
  0
LINE
  5
9F
330
17
100
AcDbEntity
  8
2-LIGHTING_RIGGING
 62
5
100
AcDbLine
 10
497.0
 20
9840.0
 30
0.0
 11
503.0
 21
9820.0
 31
0.0
  0
LINE
  5
A0
330
17
100
AcDbEntity
  8
2-LIGHTING_RIGGING
 62
5
100
AcDbLine
 10
503.0
 20
9820.0
 30
0.0
 11
497.0
 21
9800.0
 31
0.0
  0
LINE
  5
A1
330
17
100
AcDbEntity
  8
2-LIGHTING_RIGGING
 62
5
100
AcDbLine
 10
497.0
 20
9800.0
 30
0.0
 11
503.0
 21
9780.0
 31
0.0
  0
LINE
  5
A2
330
17
100
AcDbEntity
  8
2-LIGHTING_RIGGING
 62
5
100
AcDbLine
 10
503.0
 20
9780.0
 30
0.0
 11
497.0
 21
9760.0
 31
0.0
  0
LINE
  5
A3
330
17
100
AcDbEntity
  8
2-LIGHTING_RIGGING
 62
5
100
AcDbLine
 10
497.0
 20
9760.0
 30
0.0
 11
503.0
 21
9740.0
 31
0.0
  0
LINE
  5
A4
330
17
100
AcDbEntity
  8
2-LIGHTING_RIGGING
 62
5
100
AcDbLine
 10
503.0
 20
9740.0
 30
0.0
 11
497.0
 21
9720.0
 31
0.0
  0
LINE
  5
A5
330
17
100
AcDbEntity
  8
2-LIGHTING_RIGGING
 62
5
100
AcDbLine
 10
497.0
 20
9720.0
 30
0.0
 11
503.0
 21
9700.0
 31
0.0
  0
LINE
  5
A6
330
17
100
AcDbEntity
  8
2-LIGHTING_RIGGING
 62
5
100
AcDbLine
 10
503.0
 20
9700.0
 30
0.0
 11
497.0
 21
9680.0
 31
0.0
  0
LINE
  5
A7
330
17
100
AcDbEntity
  8
2-LIGHTING_RIGGING
 62
5
100
AcDbLine
 10
497.0
 20
9680.0
 30
0.0
 11
503.0
 21
9660.0
 31
0.0
  0
LINE
  5
A8
330
17
100
AcDbEntity
  8
2-LIGHTING_RIGGING
 62
5
100
AcDbLine
 10
503.0
 20
9660.0
 30
0.0
 11
497.0
 21
9640.0
 31
0.0
  0
LINE
  5
A9
330
17
100
AcDbEntity
  8
2-LIGHTING_RIGGING
 62
5
100
AcDbLine
 10
497.0
 20
9640.0
 30
0.0
 11
503.0
 21
9620.0
 31
0.0
  0
LINE
  5
AA
330
17
100
AcDbEntity
  8
2-LIGHTING_RIGGING
 62
5
100
AcDbLine
 10
503.0
 20
9620.0
 30
0.0
 11
497.0
 21
9600.0
 31
0.0
  0
LINE
  5
AB
330
17
100
AcDbEntity
  8
2-LIGHTING_RIGGING
 62
5
100
AcDbLine
 10
497.0
 20
9600.0
 30
0.0
 11
503.0
 21
9580.0
 31
0.0
  0
LINE
  5
AC
330
17
100
AcDbEntity
  8
2-LIGHTING_RIGGING
 62
5
100
AcDbLine
 10
503.0
 20
9580.0
 30
0.0
 11
497.0
 21
9560.0
 31
0.0
  0
LINE
  5
AD
330
17
100
AcDbEntity
  8
2-LIGHTING_RIGGING
 62
5
100
AcDbLine
 10
497.0
 20
9560.0
 30
0.0
 11
503.0
 21
9540.0
 31
0.0
  0
LINE
  5
AE
330
17
100
AcDbEntity
  8
2-LIGHTING_RIGGING
 62
5
100
AcDbLine
 10
503.0
 20
9540.0
 30
0.0
 11
497.0
 21
9520.0
 31
0.0
  0
LINE
  5
AF
330
17
100
AcDbEntity
  8
2-LIGHTING_RIGGING
 62
5
100
AcDbLine
 10
497.0
 20
9520.0
 30
0.0
 11
503.0
 21
9500.0
 31
0.0
  0
CIRCLE
  5
B0
330
17
100
AcDbEntity
  8
2-LIGHTING_RIGGING
 62
2
100
AcDbCircle
 10
250.0
 20
9850.0
 30
0.0
 40
5.0
  0
LINE
  5
B1
330
17
100
AcDbEntity
  8
2-LIGHTING_RIGGING
 62
2
100
AcDbLine
 10
245.0
 20
9850.0
 30
0.0
 11
255.0
 21
9850.0
 31
0.0
  0
LINE
  5
B2
330
17
100
AcDbEntity
  8
2-LIGHTING_RIGGING
 62
2
100
AcDbLine
 10
250.0
 20
9845.0
 30
0.0
 11
250.0
 21
9855.0
 31
0.0
  0
CIRCLE
  5
B3
330
17
100
AcDbEntity
  8
2-LIGHTING_RIGGING
 62
2
100
AcDbCircle
 10
750.0
 20
9850.0
 30
0.0
 40
5.0
  0
LINE
  5
B4
330
17
100
AcDbEntity
  8
2-LIGHTING_RIGGING
 62
2
100
AcDbLine
 10
745.0
 20
9850.0
 30
0.0
 11
755.0
 21
9850.0
 31
0.0
  0
LINE
  5
B5
330
17
100
AcDbEntity
  8
2-LIGHTING_RIGGING
 62
2
100
AcDbLine
 10
750.0
 20
9845.0
 30
0.0
 11
750.0
 21
9855.0
 31
0.0
  0
CIRCLE
  5
B6
330
17
100
AcDbEntity
  8
2-LIGHTING_RIGGING
 62
2
100
AcDbCircle
 10
500.0
 20
9700.0
 30
0.0
 40
5.0
  0
LINE
  5
B7
330
17
100
AcDbEntity
  8
2-LIGHTING_RIGGING
 62
2
100
AcDbLine
 10
495.0
 20
9700.0
 30
0.0
 11
505.0
 21
9700.0
 31
0.0
  0
LINE
  5
B8
330
17
100
AcDbEntity
  8
2-LIGHTING_RIGGING
 62
2
100
AcDbLine
 10
500.0
 20
9695.0
 30
0.0
 11
500.0
 21
9705.0
 31
0.0
  0
CIRCLE
  5
B9
330
17
100
AcDbEntity
  8
2-LIGHTING_RIGGING
 62
2
100
AcDbCircle
 10
250.0
 20
9550.0
 30
0.0
 40
5.0
  0
LINE
  5
BA
330
17
100
AcDbEntity
  8
2-LIGHTING_RIGGING
 62
2
100
AcDbLine
 10
245.0
 20
9550.0
 30
0.0
 11
255.0
 21
9550.0
 31
0.0
  0
LINE
  5
BB
330
17
100
AcDbEntity
  8
2-LIGHTING_RIGGING
 62
2
100
AcDbLine
 10
250.0
 20
9545.0
 30
0.0
 11
250.0
 21
9555.0
 31
0.0
  0
CIRCLE
  5
BC
330
17
100
AcDbEntity
  8
2-LIGHTING_RIGGING
 62
2
100
AcDbCircle
 10
750.0
 20
9550.0
 30
0.0
 40
5.0
  0
LINE
  5
BD
330
17
100
AcDbEntity
  8
2-LIGHTING_RIGGING
 62
2
100
AcDbLine
 10
745.0
 20
9550.0
 30
0.0
 11
755.0
 21
9550.0
 31
0.0
  0
LINE
  5
BE
330
17
100
AcDbEntity
  8
2-LIGHTING_RIGGING
 62
2
100
AcDbLine
 10
750.0
 20
9545.0
 30
0.0
 11
750.0
 21
9555.0
 31
0.0
  0
LINE
  5
BF
330
17
100
AcDbEntity
  8
2-LIGHTING_RIGGING
  6
DASHED
 62
2
100
AcDbLine
 10
50.0
 20
9995.0
 30
0.0
 11
950.0
 21
9995.0
 31
0.0
  0
LINE
  5
C0
330
17
100
AcDbEntity
  8
2-LIGHTING_RIGGING
  6
DASHED
 62
2
100
AcDbLine
 10
5.0
 20
9950.0
 30
0.0
 11
5.0
 21
9450.0
 31
0.0
  0
LINE
  5
C1
330
17
100
AcDbEntity
  8
3-ANNOTATIONS
 62
3
100
AcDbLine
 10
0.0
 20
10003.0
 30
0.0
 11
0.0
 21
10019.0
 31
0.0
  0
LINE
  5
C2
330
17
100
AcDbEntity
  8
3-ANNOTATIONS
 62
3
100
AcDbLine
 10
1000.0
 20
10003.0
 30
0.0
 11
1000.0
 21
10019.0
 31
0.0
  0
LINE
  5
C3
330
17
100
AcDbEntity
  8
3-ANNOTATIONS
 62
3
100
AcDbLine
 10
0.0
 20
10015.0
 30
0.0
 11
1000.0
 21
10015.0
 31
0.0
  0
HATCH
  5
C4
330
17
100
AcDbEntity
  8
3-ANNOTATIONS
 62
3
100
AcDbHatch
 10
0.0
 20
0.0
 30
0.0
210
0.0
220
0.0
230
1.0
  2
SOLID
 70
1
 71
0
 91
1
 92
3
 72
0
 73
1
 93
3
 10
0.0
 20
10015.0
 10
-4.0
 20
10016.2
 10
-4.0
 20
10013.8
 97
0
 75
0
 76
1
 98
0
  0
HATCH
  5
C5
330
17
100
AcDbEntity
  8
3-ANNOTATIONS
 62
3
100
AcDbHatch
 10
0.0
 20
0.0
 30
0.0
210
0.0
220
0.0
230
1.0
  2
SOLID
 70
1
 71
0
 91
1
 92
3
 72
0
 73
1
 93
3
 10
1000.0
 20
10015.0
 10
1004.0
 20
10013.8
 10
1004.0
 20
10016.2
 97
0
 75
0
 76
1
 98
0
  0
TEXT
  5
C6
330
17
100
AcDbEntity
  8
3-ANNOTATIONS
 62
3
100
AcDbText
 10
500.0
 20
10019.8
 30
0.0
 40
3.0
  1
10.00m
100
AcDbText
  0
LINE
  5
C7
330
17
100
AcDbEntity
  8
3-ANNOTATIONS
 62
3
100
AcDbLine
 10
3.0
 20
10000.0
 30
0.0
 11
26.5
 21
10000.0
 31
0.0
  0
LINE
  5
C8
330
17
100
AcDbEntity
  8
3-ANNOTATIONS
 62
3
100
AcDbLine
 10
3.0
 20
9400.0
 30
0.0
 11
26.5
 21
9400.0
 31
0.0
  0
LINE
  5
C9
330
17
100
AcDbEntity
  8
3-ANNOTATIONS
 62
3
100
AcDbLine
 10
22.5
 20
10000.0
 30
0.0
 11
22.5
 21
9400.0
 31
0.0
  0
HATCH
  5
CA
330
17
100
AcDbEntity
  8
3-ANNOTATIONS
 62
3
100
AcDbHatch
 10
0.0
 20
0.0
 30
0.0
210
0.0
220
0.0
230
1.0
  2
SOLID
 70
1
 71
0
 91
1
 92
3
 72
0
 73
1
 93
3
 10
22.5
 20
10000.0
 10
23.7
 20
10004.0
 10
21.3
 20
10004.0
 97
0
 75
0
 76
1
 98
0
  0
HATCH
  5
CB
330
17
100
AcDbEntity
  8
3-ANNOTATIONS
 62
3
100
AcDbHatch
 10
0.0
 20
0.0
 30
0.0
210
0.0
220
0.0
230
1.0
  2
SOLID
 70
1
 71
0
 91
1
 92
3
 72
0
 73
1
 93
3
 10
22.5
 20
9400.0
 10
21.3
 20
9396.0
 10
23.7
 20
9396.0
 97
0
 75
0
 76
1
 98
0
  0
TEXT
  5
CC
330
17
100
AcDbEntity
  8
3-ANNOTATIONS
 62
3
100
AcDbText
 10
27.3
 20
9700.0
 30
0.0
 40
3.0
  1
6.00m
 50
-90.0
100
AcDbText
  0
LINE
  5
CD
330
17
100
AcDbEntity
  8
3-ANNOTATIONS
 62
3
100
AcDbLine
 10
1003.0
 20
10000.0
 30
0.0
 11
1034.0
 21
10000.0
 31
0.0
  0
LINE
  5
CE
330
17
100
AcDbEntity
  8
3-ANNOTATIONS
 62
3
100
AcDbLine
 10
1003.0
 20
9400.0
 30
0.0
 11
1034.0
 21
9400.0
 31
0.0
  0
LINE
  5
CF
330
17
100
AcDbEntity
  8
3-ANNOTATIONS
 62
3
100
AcDbLine
 10
1030.0
 20
10000.0
 30
0.0
 11
1030.0
 21
9400.0
 31
0.0
  0
HATCH
  5
D0
330
17
100
AcDbEntity
  8
3-ANNOTATIONS
 62
3
100
AcDbHatch
 10
0.0
 20
0.0
 30
0.0
210
0.0
220
0.0
230
1.0
  2
SOLID
 70
1
 71
0
 91
1
 92
3
 72
0
 73
1
 93
3
 10
1030.0
 20
10000.0
 10
1031.2
 20
10004.0
 10
1028.8
 20
10004.0
 97
0
 75
0
 76
1
 98
0
  0
HATCH
  5
D1
330
17
100
AcDbEntity
  8
3-ANNOTATIONS
 62
3
100
AcDbHatch
 10
0.0
 20
0.0
 30
0.0
210
0.0
220
0.0
230
1.0
  2
SOLID
 70
1
 71
0
 91
1
 92
3
 72
0
 73
1
 93
3
 10
1030.0
 20
9400.0
 10
1028.8
 20
9396.0
 10
1031.2
 20
9396.0
 97
0
 75
0
 76
1
 98
0
  0
TEXT
  5
D2
330
17
100
AcDbEntity
  8
3-ANNOTATIONS
 62
3
100
AcDbText
 10
1034.8
 20
9700.0
 30
0.0
 40
3.0
  1
6.00m
 50
-90.0
100
AcDbText
  0
LINE
  5
D3
330
17
100
AcDbEntity
  8
3-ANNOTATIONS
 62
3
100
AcDbLine
 10
0.0
 20
9403.0
 30
0.0
 11
0.0
 21
9419.0
 31
0.0
  0
LINE
  5
D4
330
17
100
AcDbEntity
  8
3-ANNOTATIONS
 62
3
100
AcDbLine
 10
300.0
 20
9403.0
 30
0.0
 11
300.0
 21
9419.0
 31
0.0
  0
LINE
  5
D5
330
17
100
AcDbEntity
  8
3-ANNOTATIONS
 62
3
100
AcDbLine
 10
0.0
 20
9415.0
 30
0.0
 11
300.0
 21
9415.0
 31
0.0
  0
HATCH
  5
D6
330
17
100
AcDbEntity
  8
3-ANNOTATIONS
 62
3
100
AcDbHatch
 10
0.0
 20
0.0
 30
0.0
210
0.0
220
0.0
230
1.0
  2
SOLID
 70
1
 71
0
 91
1
 92
3
 72
0
 73
1
 93
3
 10
0.0
 20
9415.0
 10
-4.0
 20
9416.2
 10
-4.0
 20
9413.8
 97
0
 75
0
 76
1
 98
0
  0
HATCH
  5
D7
330
17
100
AcDbEntity
  8
3-ANNOTATIONS
 62
3
100
AcDbHatch
 10
0.0
 20
0.0
 30
0.0
210
0.0
220
0.0
230
1.0
  2
SOLID
 70
1
 71
0
 91
1
 92
3
 72
0
 73
1
 93
3
 10
300.0
 20
9415.0
 10
304.0
 20
9413.8
 10
304.0
 20
9416.2
 97
0
 75
0
 76
1
 98
0
  0
TEXT
  5
D8
330
17
100
AcDbEntity
  8
3-ANNOTATIONS
 62
3
100
AcDbText
 10
150.0
 20
9419.8
 30
0.0
 40
3.0
  1
3.00m
100
AcDbText
  0
LINE
  5
D9
330
17
100
AcDbEntity
  8
3-ANNOTATIONS
 62
3
100
AcDbLine
 10
700.0
 20
9403.0
 30
0.0
 11
700.0
 21
9426.5
 31
0.0
  0
LINE
  5
DA
330
17
100
AcDbEntity
  8
3-ANNOTATIONS
 62
3
100
AcDbLine
 10
1000.0
 20
9403.0
 30
0.0
 11
1000.0
 21
9426.5
 31
0.0
  0
LINE
  5
DB
330
17
100
AcDbEntity
  8
3-ANNOTATIONS
 62
3
100
AcDbLine
 10
700.0
 20
9422.5
 30
0.0
 11
1000.0
 21
9422.5
 31
0.0
  0
HATCH
  5
DC
330
17
100
AcDbEntity
  8
3-ANNOTATIONS
 62
3
100
AcDbHatch
 10
0.0
 20
0.0
 30
0.0
210
0.0
220
0.0
230
1.0
  2
SOLID
 70
1
 71
0
 91
1
 92
3
 72
0
 73
1
 93
3
 10
700.0
 20
9422.5
 10
696.0
 20
9423.7
 10
696.0
 20
9421.3
 97
0
 75
0
 76
1
 98
0
  0
HATCH
  5
DD
330
17
100
AcDbEntity
  8
3-ANNOTATIONS
 62
3
100
AcDbHatch
 10
0.0
 20
0.0
 30
0.0
210
0.0
220
0.0
230
1.0
  2
SOLID
 70
1
 71
0
 91
1
 92
3
 72
0
 73
1
 93
3
 10
1000.0
 20
9422.5
 10
1004.0
 20
9421.3
 10
1004.0
 20
9423.7
 97
0
 75
0
 76
1
 98
0
  0
TEXT
  5
DE
330
17
100
AcDbEntity
  8
3-ANNOTATIONS
 62
3
100
AcDbText
 10
850.0
 20
9427.3
 30
0.0
 40
3.0
  1
3.00m
100
AcDbText
  0
LINE
  5
DF
330
17
100
AcDbEntity
  8
3-ANNOTATIONS
 62
3
100
AcDbLine
 10
503.0
 20
10000.0
 30
0.0
 11
534.0
 21
10000.0
 31
0.0
  0
LINE
  5
E0
330
17
100
AcDbEntity
  8
3-ANNOTATIONS
 62
3
100
AcDbLine
 10
503.0
 20
9700.0
 30
0.0
 11
534.0
 21
9700.0
 31
0.0
  0
LINE
  5
E1
330
17
100
AcDbEntity
  8
3-ANNOTATIONS
 62
3
100
AcDbLine
 10
530.0
 20
10000.0
 30
0.0
 11
530.0
 21
9700.0
 31
0.0
  0
HATCH
  5
E2
330
17
100
AcDbEntity
  8
3-ANNOTATIONS
 62
3
100
AcDbHatch
 10
0.0
 20
0.0
 30
0.0
210
0.0
220
0.0
230
1.0
  2
SOLID
 70
1
 71
0
 91
1
 92
3
 72
0
 73
1
 93
3
 10
530.0
 20
10000.0
 10
531.2
 20
10004.0
 10
528.8
 20
10004.0
 97
0
 75
0
 76
1
 98
0
  0
HATCH
  5
E3
330
17
100
AcDbEntity
  8
3-ANNOTATIONS
 62
3
100
AcDbHatch
 10
0.0
 20
0.0
 30
0.0
210
0.0
220
0.0
230
1.0
  2
SOLID
 70
1
 71
0
 91
1
 92
3
 72
0
 73
1
 93
3
 10
530.0
 20
9700.0
 10
528.8
 20
9696.0
 10
531.2
 20
9696.0
 97
0
 75
0
 76
1
 98
0
  0
TEXT
  5
E4
330
17
100
AcDbEntity
  8
3-ANNOTATIONS
 62
3
100
AcDbText
 10
534.8
 20
9850.0
 30
0.0
 40
3.0
  1
3.00m
 50
-90.0
100
AcDbText
  0
LINE
  5
E5
330
17
100
AcDbEntity
  8
3-ANNOTATIONS
 62
3
100
AcDbLine
 10
160.0
 20
9597.0
 30
0.0
 11
160.0
 21
9584.0
 31
0.0
  0
LINE
  5
E6
330
17
100
AcDbEntity
  8
3-ANNOTATIONS
 62
3
100
AcDbLine
 10
340.0
 20
9597.0
 30
0.0
 11
340.0
 21
9584.0
 31
0.0
  0
LINE
  5
E7
330
17
100
AcDbEntity
  8
3-ANNOTATIONS
 62
3
100
AcDbLine
 10
160.0
 20
9588.0
 30
0.0
 11
340.0
 21
9588.0
 31
0.0
  0
HATCH
  5
E8
330
17
100
AcDbEntity
  8
3-ANNOTATIONS
 62
3
100
AcDbHatch
 10
0.0
 20
0.0
 30
0.0
210
0.0
220
0.0
230
1.0
  2
SOLID
 70
1
 71
0
 91
1
 92
3
 72
0
 73
1
 93
3
 10
160.0
 20
9588.0
 10
156.0
 20
9589.2
 10
156.0
 20
9586.8
 97
0
 75
0
 76
1
 98
0
  0
HATCH
  5
E9
330
17
100
AcDbEntity
  8
3-ANNOTATIONS
 62
3
100
AcDbHatch
 10
0.0
 20
0.0
 30
0.0
210
0.0
220
0.0
230
1.0
  2
SOLID
 70
1
 71
0
 91
1
 92
3
 72
0
 73
1
 93
3
 10
340.0
 20
9588.0
 10
344.0
 20
9586.8
 10
344.0
 20
9589.2
 97
0
 75
0
 76
1
 98
0
  0
TEXT
  5
EA
330
17
100
AcDbEntity
  8
3-ANNOTATIONS
 62
3
100
AcDbText
 10
250.0
 20
9583.2
 30
0.0
 40
3.0
  1
1.80m
100
AcDbText
  0
LINE
  5
EB
330
17
100
AcDbEntity
  8
3-ANNOTATIONS
 62
3
100
AcDbLine
 10
650.0
 20
9797.0
 30
0.0
 11
650.0
 21
9784.0
 31
0.0
  0
LINE
  5
EC
330
17
100
AcDbEntity
  8
3-ANNOTATIONS
 62
3
100
AcDbLine
 10
850.0
 20
9797.0
 30
0.0
 11
850.0
 21
9784.0
 31
0.0
  0
LINE
  5
ED
330
17
100
AcDbEntity
  8
3-ANNOTATIONS
 62
3
100
AcDbLine
 10
650.0
 20
9788.0
 30
0.0
 11
850.0
 21
9788.0
 31
0.0
  0
HATCH
  5
EE
330
17
100
AcDbEntity
  8
3-ANNOTATIONS
 62
3
100
AcDbHatch
 10
0.0
 20
0.0
 30
0.0
210
0.0
220
0.0
230
1.0
  2
SOLID
 70
1
 71
0
 91
1
 92
3
 72
0
 73
1
 93
3
 10
650.0
 20
9788.0
 10
646.0
 20
9789.2
 10
646.0
 20
9786.8
 97
0
 75
0
 76
1
 98
0
  0
HATCH
  5
EF
330
17
100
AcDbEntity
  8
3-ANNOTATIONS
 62
3
100
AcDbHatch
 10
0.0
 20
0.0
 30
0.0
210
0.0
220
0.0
230
1.0
  2
SOLID
 70
1
 71
0
 91
1
 92
3
 72
0
 73
1
 93
3
 10
850.0
 20
9788.0
 10
854.0
 20
9786.8
 10
854.0
 20
9789.2
 97
0
 75
0
 76
1
 98
0
  0
TEXT
  5
F0
330
17
100
AcDbEntity
  8
3-ANNOTATIONS
 62
3
100
AcDbText
 10
750.0
 20
9783.2
 30
0.0
 40
3.0
  1
2.00m
100
AcDbText
  0
LINE
  5
F1
330
17
100
AcDbEntity
  8
3-ANNOTATIONS
 62
3
100
AcDbLine
 10
175.0
 20
9677.0
 30
0.0
 11
175.0
 21
9664.0
 31
0.0
  0
LINE
  5
F2
330
17
100
AcDbEntity
  8
3-ANNOTATIONS
 62
3
100
AcDbLine
 10
225.0
 20
9677.0
 30
0.0
 11
225.0
 21
9664.0
 31
0.0
  0
LINE
  5
F3
330
17
100
AcDbEntity
  8
3-ANNOTATIONS
 62
3
100
AcDbLine
 10
175.0
 20
9668.0
 30
0.0
 11
225.0
 21
9668.0
 31
0.0
  0
HATCH
  5
F4
330
17
100
AcDbEntity
  8
3-ANNOTATIONS
 62
3
100
AcDbHatch
 10
0.0
 20
0.0
 30
0.0
210
0.0
220
0.0
230
1.0
  2
SOLID
 70
1
 71
0
 91
1
 92
3
 72
0
 73
1
 93
3
 10
175.0
 20
9668.0
 10
171.0
 20
9669.2
 10
171.0
 20
9666.8
 97
0
 75
0
 76
1
 98
0
  0
HATCH
  5
F5
330
17
100
AcDbEntity
  8
3-ANNOTATIONS
 62
3
100
AcDbHatch
 10
0.0
 20
0.0
 30
0.0
210
0.0
220
0.0
230
1.0
  2
SOLID
 70
1
 71
0
 91
1
 92
3
 72
0
 73
1
 93
3
 10
225.0
 20
9668.0
 10
229.0
 20
9666.8
 10
229.0
 20
9669.2
 97
0
 75
0
 76
1
 98
0
  0
TEXT
  5
F6
330
17
100
AcDbEntity
  8
3-ANNOTATIONS
 62
3
100
AcDbText
 10
200.0
 20
9663.2
 30
0.0
 40
3.0
  1
50.0cm
100
AcDbText
  0
LINE
  5
F7
330
17
100
AcDbEntity
  8
3-ANNOTATIONS
 62
3
100
AcDbLine
 10
275.0
 20
9677.0
 30
0.0
 11
275.0
 21
9664.0
 31
0.0
  0
LINE
  5
F8
330
17
100
AcDbEntity
  8
3-ANNOTATIONS
 62
3
100
AcDbLine
 10
325.0
 20
9677.0
 30
0.0
 11
325.0
 21
9664.0
 31
0.0
  0
LINE
  5
F9
330
17
100
AcDbEntity
  8
3-ANNOTATIONS
 62
3
100
AcDbLine
 10
275.0
 20
9668.0
 30
0.0
 11
325.0
 21
9668.0
 31
0.0
  0
HATCH
  5
FA
330
17
100
AcDbEntity
  8
3-ANNOTATIONS
 62
3
100
AcDbHatch
 10
0.0
 20
0.0
 30
0.0
210
0.0
220
0.0
230
1.0
  2
SOLID
 70
1
 71
0
 91
1
 92
3
 72
0
 73
1
 93
3
 10
275.0
 20
9668.0
 10
271.0
 20
9669.2
 10
271.0
 20
9666.8
 97
0
 75
0
 76
1
 98
0
  0
HATCH
  5
FB
330
17
100
AcDbEntity
  8
3-ANNOTATIONS
 62
3
100
AcDbHatch
 10
0.0
 20
0.0
 30
0.0
210
0.0
220
0.0
230
1.0
  2
SOLID
 70
1
 71
0
 91
1
 92
3
 72
0
 73
1
 93
3
 10
325.0
 20
9668.0
 10
329.0
 20
9666.8
 10
329.0
 20
9669.2
 97
0
 75
0
 76
1
 98
0
  0
TEXT
  5
FC
330
17
100
AcDbEntity
  8
3-ANNOTATIONS
 62
3
100
AcDbText
 10
300.0
 20
9663.2
 30
0.0
 40
3.0
  1
50.0cm
100
AcDbText
  0
LINE
  5
FD
330
17
100
AcDbEntity
  8
3-ANNOTATIONS
 62
3
100
AcDbLine
 10
175.0
 20
9517.0
 30
0.0
 11
175.0
 21
9504.0
 31
0.0
  0
LINE
  5
FE
330
17
100
AcDbEntity
  8
3-ANNOTATIONS
 62
3
100
AcDbLine
 10
225.0
 20
9517.0
 30
0.0
 11
225.0
 21
9504.0
 31
0.0
  0
LINE
  5
FF
330
17
100
AcDbEntity
  8
3-ANNOTATIONS
 62
3
100
AcDbLine
 10
175.0
 20
9508.0
 30
0.0
 11
225.0
 21
9508.0
 31
0.0
  0
HATCH
  5
100
330
17
100
AcDbEntity
  8
3-ANNOTATIONS
 62
3
100
AcDbHatch
 10
0.0
 20
0.0
 30
0.0
210
0.0
220
0.0
230
1.0
  2
SOLID
 70
1
 71
0
 91
1
 92
3
 72
0
 73
1
 93
3
 10
175.0
 20
9508.0
 10
171.0
 20
9509.2
 10
171.0
 20
9506.8
 97
0
 75
0
 76
1
 98
0
  0
HATCH
  5
101
330
17
100
AcDbEntity
  8
3-ANNOTATIONS
 62
3
100
AcDbHatch
 10
0.0
 20
0.0
 30
0.0
210
0.0
220
0.0
230
1.0
  2
SOLID
 70
1
 71
0
 91
1
 92
3
 72
0
 73
1
 93
3
 10
225.0
 20
9508.0
 10
229.0
 20
9506.8
 10
229.0
 20
9509.2
 97
0
 75
0
 76
1
 98
0
  0
TEXT
  5
102
330
17
100
AcDbEntity
  8
3-ANNOTATIONS
 62
3
100
AcDbText
 10
200.0
 20
9503.2
 30
0.0
 40
3.0
  1
50.0cm
100
AcDbText
  0
LINE
  5
103
330
17
100
AcDbEntity
  8
3-ANNOTATIONS
 62
3
100
AcDbLine
 10
275.0
 20
9517.0
 30
0.0
 11
275.0
 21
9504.0
 31
0.0
  0
LINE
  5
104
330
17
100
AcDbEntity
  8
3-ANNOTATIONS
 62
3
100
AcDbLine
 10
325.0
 20
9517.0
 30
0.0
 11
325.0
 21
9504.0
 31
0.0
  0
LINE
  5
105
330
17
100
AcDbEntity
  8
3-ANNOTATIONS
 62
3
100
AcDbLine
 10
275.0
 20
9508.0
 30
0.0
 11
325.0
 21
9508.0
 31
0.0
  0
HATCH
  5
106
330
17
100
AcDbEntity
  8
3-ANNOTATIONS
 62
3
100
AcDbHatch
 10
0.0
 20
0.0
 30
0.0
210
0.0
220
0.0
230
1.0
  2
SOLID
 70
1
 71
0
 91
1
 92
3
 72
0
 73
1
 93
3
 10
275.0
 20
9508.0
 10
271.0
 20
9509.2
 10
271.0
 20
9506.8
 97
0
 75
0
 76
1
 98
0
  0
HATCH
  5
107
330
17
100
AcDbEntity
  8
3-ANNOTATIONS
 62
3
100
AcDbHatch
 10
0.0
 20
0.0
 30
0.0
210
0.0
220
0.0
230
1.0
  2
SOLID
 70
1
 71
0
 91
1
 92
3
 72
0
 73
1
 93
3
 10
325.0
 20
9508.0
 10
329.0
 20
9506.8
 10
329.0
 20
9509.2
 97
0
 75
0
 76
1
 98
0
  0
TEXT
  5
108
330
17
100
AcDbEntity
  8
3-ANNOTATIONS
 62
3
100
AcDbText
 10
300.0
 20
9503.2
 30
0.0
 40
3.0
  1
50.0cm
100
AcDbText
  0
LINE
  5
109
330
17
100
AcDbEntity
  8
3-ANNOTATIONS
 62
3
100
AcDbLine
 10
50.0
 20
9967.0
 30
0.0
 11
50.0
 21
9954.0
 31
0.0
  0
LINE
  5
10A
330
17
100
AcDbEntity
  8
3-ANNOTATIONS
 62
3
100
AcDbLine
 10
250.0
 20
9967.0
 30
0.0
 11
250.0
 21
9954.0
 31
0.0
  0
LINE
  5
10B
330
17
100
AcDbEntity
  8
3-ANNOTATIONS
 62
3
100
AcDbLine
 10
50.0
 20
9958.0
 30
0.0
 11
250.0
 21
9958.0
 31
0.0
  0
HATCH
  5
10C
330
17
100
AcDbEntity
  8
3-ANNOTATIONS
 62
3
100
AcDbHatch
 10
0.0
 20
0.0
 30
0.0
210
0.0
220
0.0
230
1.0
  2
SOLID
 70
1
 71
0
 91
1
 92
3
 72
0
 73
1
 93
3
 10
50.0
 20
9958.0
 10
46.0
 20
9959.2
 10
46.0
 20
9956.8
 97
0
 75
0
 76
1
 98
0
  0
HATCH
  5
10D
330
17
100
AcDbEntity
  8
3-ANNOTATIONS
 62
3
100
AcDbHatch
 10
0.0
 20
0.0
 30
0.0
210
0.0
220
0.0
230
1.0
  2
SOLID
 70
1
 71
0
 91
1
 92
3
 72
0
 73
1
 93
3
 10
250.0
 20
9958.0
 10
254.0
 20
9956.8
 10
254.0
 20
9959.2
 97
0
 75
0
 76
1
 98
0
  0
TEXT
  5
10E
330
17
100
AcDbEntity
  8
3-ANNOTATIONS
 62
3
100
AcDbText
 10
150.0
 20
9953.2
 30
0.0
 40
3.0
  1
2.00m
100
AcDbText
  0
LINE
  5
10F
330
17
100
AcDbEntity
  8
3-ANNOTATIONS
 62
3
100
AcDbLine
 10
525.0
 20
9967.0
 30
0.0
 11
525.0
 21
9954.0
 31
0.0
  0
LINE
  5
110
330
17
100
AcDbEntity
  8
3-ANNOTATIONS
 62
3
100
AcDbLine
 10
775.0
 20
9967.0
 30
0.0
 11
775.0
 21
9954.0
 31
0.0
  0
LINE
  5
111
330
17
100
AcDbEntity
  8
3-ANNOTATIONS
 62
3
100
AcDbLine
 10
525.0
 20
9958.0
 30
0.0
 11
775.0
 21
9958.0
 31
0.0
  0
HATCH
  5
112
330
17
100
AcDbEntity
  8
3-ANNOTATIONS
 62
3
100
AcDbHatch
 10
0.0
 20
0.0
 30
0.0
210
0.0
220
0.0
230
1.0
  2
SOLID
 70
1
 71
0
 91
1
 92
3
 72
0
 73
1
 93
3
 10
525.0
 20
9958.0
 10
521.0
 20
9959.2
 10
521.0
 20
9956.8
 97
0
 75
0
 76
1
 98
0
  0
HATCH
  5
113
330
17
100
AcDbEntity
  8
3-ANNOTATIONS
 62
3
100
AcDbHatch
 10
0.0
 20
0.0
 30
0.0
210
0.0
220
0.0
230
1.0
  2
SOLID
 70
1
 71
0
 91
1
 92
3
 72
0
 73
1
 93
3
 10
775.0
 20
9958.0
 10
779.0
 20
9956.8
 10
779.0
 20
9959.2
 97
0
 75
0
 76
1
 98
0
  0
TEXT
  5
114
330
17
100
AcDbEntity
  8
3-ANNOTATIONS
 62
3
100
AcDbText
 10
650.0
 20
9953.2
 30
0.0
 40
3.0
  1
2.50m
100
AcDbText
  0
LINE
  5
115
330
17
100
AcDbEntity
  8
3-ANNOTATIONS
 62
3
100
AcDbLine
 10
300.0
 20
9987.0
 30
0.0
 11
300.0
 21
9974.0
 31
0.0
  0
LINE
  5
116
330
17
100
AcDbEntity
  8
3-ANNOTATIONS
 62
3
100
AcDbLine
 10
500.0
 20
9987.0
 30
0.0
 11
500.0
 21
9974.0
 31
0.0
  0
LINE
  5
117
330
17
100
AcDbEntity
  8
3-ANNOTATIONS
 62
3
100
AcDbLine
 10
300.0
 20
9978.0
 30
0.0
 11
500.0
 21
9978.0
 31
0.0
  0
HATCH
  5
118
330
17
100
AcDbEntity
  8
3-ANNOTATIONS
 62
3
100
AcDbHatch
 10
0.0
 20
0.0
 30
0.0
210
0.0
220
0.0
230
1.0
  2
SOLID
 70
1
 71
0
 91
1
 92
3
 72
0
 73
1
 93
3
 10
300.0
 20
9978.0
 10
296.0
 20
9979.2
 10
296.0
 20
9976.8
 97
0
 75
0
 76
1
 98
0
  0
HATCH
  5
119
330
17
100
AcDbEntity
  8
3-ANNOTATIONS
 62
3
100
AcDbHatch
 10
0.0
 20
0.0
 30
0.0
210
0.0
220
0.0
230
1.0
  2
SOLID
 70
1
 71
0
 91
1
 92
3
 72
0
 73
1
 93
3
 10
500.0
 20
9978.0
 10
504.0
 20
9976.8
 10
504.0
 20
9979.2
 97
0
 75
0
 76
1
 98
0
  0
TEXT
  5
11A
330
17
100
AcDbEntity
  8
3-ANNOTATIONS
 62
3
100
AcDbText
 10
400.0
 20
9973.2
 30
0.0
 40
3.0
  1
2.00m
100
AcDbText
  0
LINE
  5
11B
330
17
100
AcDbEntity
  8
3-ANNOTATIONS
 62
3
100
AcDbLine
 10
6.000000000000001
 20
9797.0
 30
0.0
 11
6.000000000000001
 21
9784.0
 31
0.0
  0
LINE
  5
11C
330
17
100
AcDbEntity
  8
3-ANNOTATIONS
 62
3
100
AcDbLine
 10
14.000000000000002
 20
9797.0
 30
0.0
 11
14.000000000000002
 21
9784.0
 31
0.0
  0
LINE
  5
11D
330
17
100
AcDbEntity
  8
3-ANNOTATIONS
 62
3
100
AcDbLine
 10
6.000000000000001
 20
9788.0
 30
0.0
 11
14.000000000000002
 21
9788.0
 31
0.0
  0
HATCH
  5
11E
330
17
100
AcDbEntity
  8
3-ANNOTATIONS
 62
3
100
AcDbHatch
 10
0.0
 20
0.0
 30
0.0
210
0.0
220
0.0
230
1.0
  2
SOLID
 70
1
 71
0
 91
1
 92
3
 72
0
 73
1
 93
3
 10
6.000000000000001
 20
9788.0
 10
2.000000000000001
 20
9789.2
 10
2.000000000000001
 20
9786.8
 97
0
 75
0
 76
1
 98
0
  0
HATCH
  5
11F
330
17
100
AcDbEntity
  8
3-ANNOTATIONS
 62
3
100
AcDbHatch
 10
0.0
 20
0.0
 30
0.0
210
0.0
220
0.0
230
1.0
  2
SOLID
 70
1
 71
0
 91
1
 92
3
 72
0
 73
1
 93
3
 10
14.000000000000002
 20
9788.0
 10
18.0
 20
9786.8
 10
18.0
 20
9789.2
 97
0
 75
0
 76
1
 98
0
  0
TEXT
  5
120
330
17
100
AcDbEntity
  8
3-ANNOTATIONS
 62
3
100
AcDbText
 10
10.000000000000002
 20
9783.2
 30
0.0
 40
3.0
  1
8.0cm
100
AcDbText
  0
LINE
  5
121
330
17
100
AcDbEntity
  8
3-ANNOTATIONS
 62
3
100
AcDbLine
 10
986.0000000000001
 20
9797.0
 30
0.0
 11
986.0000000000001
 21
9784.0
 31
0.0
  0
LINE
  5
122
330
17
100
AcDbEntity
  8
3-ANNOTATIONS
 62
3
100
AcDbLine
 10
994.0
 20
9797.0
 30
0.0
 11
994.0
 21
9784.0
 31
0.0
  0
LINE
  5
123
330
17
100
AcDbEntity
  8
3-ANNOTATIONS
 62
3
100
AcDbLine
 10
986.0000000000001
 20
9788.0
 30
0.0
 11
994.0
 21
9788.0
 31
0.0
  0
HATCH
  5
124
330
17
100
AcDbEntity
  8
3-ANNOTATIONS
 62
3
100
AcDbHatch
 10
0.0
 20
0.0
 30
0.0
210
0.0
220
0.0
230
1.0
  2
SOLID
 70
1
 71
0
 91
1
 92
3
 72
0
 73
1
 93
3
 10
986.0000000000001
 20
9788.0
 10
982.0000000000001
 20
9789.2
 10
982.0000000000001
 20
9786.8
 97
0
 75
0
 76
1
 98
0
  0
HATCH
  5
125
330
17
100
AcDbEntity
  8
3-ANNOTATIONS
 62
3
100
AcDbHatch
 10
0.0
 20
0.0
 30
0.0
210
0.0
220
0.0
230
1.0
  2
SOLID
 70
1
 71
0
 91
1
 92
3
 72
0
 73
1
 93
3
 10
994.0
 20
9788.0
 10
998.0
 20
9786.8
 10
998.0
 20
9789.2
 97
0
 75
0
 76
1
 98
0
  0
TEXT
  5
126
330
17
100
AcDbEntity
  8
3-ANNOTATIONS
 62
3
100
AcDbText
 10
990.0
 20
9783.2
 30
0.0
 40
3.0
  1
8.0cm
100
AcDbText
  0
TEXT
  5
127
330
17
100
AcDbEntity
  8
3-ANNOTATIONS
 62
3
100
AcDbText
 10
500.0
 20
9977.6
 30
0.0
 40
2.5
  1
Back Wall
100
AcDbText
  0
TEXT
  5
128
330
17
100
AcDbEntity
  8
3-ANNOTATIONS
 62
3
100
AcDbText
 10
0.0
 20
9744.8
 30
0.0
 40
2.5
  1
Left Wall
100
AcDbText
  0
TEXT
  5
129
330
17
100
AcDbEntity
  8
3-ANNOTATIONS
 62
3
100
AcDbText
 10
1000.0
 20
9744.8
 30
0.0
 40
2.5
  1
Right Wall
100
AcDbText
  0
TEXT
  5
12A
330
17
100
AcDbEntity
  8
3-ANNOTATIONS
 62
3
100
AcDbText
 10
150.0
 20
9377.6
 30
0.0
 40
2.5
  1
Front Left Partition
100
AcDbText
  0
TEXT
  5
12B
330
17
100
AcDbEntity
  8
3-ANNOTATIONS
 62
3
100
AcDbText
 10
850.0
 20
9400.0
 30
0.0
 40
2.5
  1
Front Right Partition
100
AcDbText
  0
TEXT
  5
12C
330
17
100
AcDbEntity
  8
3-ANNOTATIONS
 62
3
100
AcDbText
 10
500.0
 20
9894.8
 30
0.0
 40
2.5
  1
Inner Divider
100
AcDbText
  0
TEXT
  5
12D
330
17
100
AcDbEntity
  8
3-ANNOTATIONS
 62
3
100
AcDbText
 10
250.0
 20
9622.4
 30
0.0
 40
2.5
  1
Reception Table
100
AcDbText
  0
TEXT
  5
12E
330
17
100
AcDbEntity
  8
3-ANNOTATIONS
 62
3
100
AcDbText
 10
750.0
 20
9822.4
 30
0.0
 40
2.5
  1
Display Table
100
AcDbText
  0
TEXT
  5
12F
330
17
100
AcDbEntity
  8
3-ANNOTATIONS
 62
3
100
AcDbText
 10
200.0
 20
9702.4
 30
0.0
 40
2.5
  1
Chair A
100
AcDbText
  0
TEXT
  5
130
330
17
100
AcDbEntity
  8
3-ANNOTATIONS
 62
3
100
AcDbText
 10
300.0
 20
9702.4
 30
0.0
 40
2.5
  1
Chair B
100
AcDbText
  0
TEXT
  5
131
330
17
100
AcDbEntity
  8
3-ANNOTATIONS
 62
3
100
AcDbText
 10
200.0
 20
9542.4
 30
0.0
 40
2.5
  1
Chair C
100
AcDbText
  0
TEXT
  5
132
330
17
100
AcDbEntity
  8
3-ANNOTATIONS
 62
3
100
AcDbText
 10
300.0
 20
9542.4
 30
0.0
 40
2.5
  1
Chair D
100
AcDbText
  0
TEXT
  5
133
330
17
100
AcDbEntity
  8
3-ANNOTATIONS
 62
3
100
AcDbText
 10
150.0
 20
9992.4
 30
0.0
 40
2.5
  1
Lightbox Display A
100
AcDbText
  0
TEXT
  5
134
330
17
100
AcDbEntity
  8
3-ANNOTATIONS
 62
3
100
AcDbText
 10
650.0
 20
9992.4
 30
0.0
 40
2.5
  1
Lightbox Display B
100
AcDbText
  0
TEXT
  5
135
330
17
100
AcDbEntity
  8
3-ANNOTATIONS
 62
3
100
AcDbText
 10
400.0
 20
10012.4
 30
0.0
 40
2.5
  1
Neon Sign
100
AcDbText
  0
TEXT
  5
136
330
17
100
AcDbEntity
  8
3-ANNOTATIONS
 62
3
100
AcDbText
 10
10.0
 20
9822.4
 30
0.0
 40
2.5
  1
Power Socket A
100
AcDbText
  0
TEXT
  5
137
330
17
100
AcDbEntity
  8
3-ANNOTATIONS
 62
3
100
AcDbText
 10
990.0
 20
9822.4
 30
0.0
 40
2.5
  1
Power Socket B
100
AcDbText
  0
TEXT
  5
138
330
17
100
AcDbEntity
  8
3-ANNOTATIONS
 62
3
100
AcDbText
 10
250.0
 20
9850.0
 30
0.0
 40
2.5
  1
Track Spotlight A
100
AcDbText
  0
TEXT
  5
139
330
17
100
AcDbEntity
  8
3-ANNOTATIONS
 62
3
100
AcDbText
 10
750.0
 20
9850.0
 30
0.0
 40
2.5
  1
Track Spotlight B
100
AcDbText
  0
TEXT
  5
13A
330
17
100
AcDbEntity
  8
3-ANNOTATIONS
 62
3
100
AcDbText
 10
500.0
 20
9700.0
 30
0.0
 40
2.5
  1
Track Spotlight C
100
AcDbText
  0
TEXT
  5
13B
330
17
100
AcDbEntity
  8
3-ANNOTATIONS
 62
3
100
AcDbText
 10
250.0
 20
9460.4
 30
0.0
 40
2.5
  1
Track Spotlight D
100
AcDbText
  0
TEXT
  5
13C
330
17
100
AcDbEntity
  8
3-ANNOTATIONS
 62
3
100
AcDbText
 10
750.0
 20
9550.0
 30
0.0
 40
2.5
  1
Track Spotlight E
100
AcDbText
  0
TEXT
  5
13D
330
17
100
AcDbEntity
  8
3-ANNOTATIONS
 62
3
100
AcDbText
 10
500.0
 20
9922.4
 30
0.0
 40
2.5
  1
Main Truss A
100
AcDbText
  0
TEXT
  5
13E
330
17
100
AcDbEntity
  8
3-ANNOTATIONS
 62
3
100
AcDbText
 10
500.0
 20
9500.0
 30
0.0
 40
2.5
  1
Main Truss B
100
AcDbText
  0
TEXT
  5
13F
330
17
100
AcDbEntity
  8
3-ANNOTATIONS
 62
3
100
AcDbText
 10
500.0
 20
9744.8
 30
0.0
 40
2.5
  1
Cross Truss
100
AcDbText
  0
LWPOLYLINE
  5
140
330
17
100
AcDbEntity
  8
3-ANNOTATIONS
 62
3
100
AcDbPolyline
 90
5
 70
0
 10
-50.0
 20
-50.0
 10
150.0
 20
-50.0
 10
150.0
 20
-10.0
 10
-50.0
 20
-10.0
 10
-50.0
 20
-50.0
  0
TEXT
  5
141
330
17
100
AcDbEntity
  8
3-ANNOTATIONS
 62
3
100
AcDbText
 10
-45.0
 20
-18.0
 30
0.0
 40
2.5
  1
Track ceiling spotlight
100
AcDbText
  0
TEXT
  5
142
330
17
100
AcDbEntity
  8
3-ANNOTATIONS
 62
3
100
AcDbText
 10
20.0
 20
-18.0
 30
0.0
 40
2.5
  1
Socket
100
AcDbText
  0
TEXT
  5
143
330
17
100
AcDbEntity
  8
3-ANNOTATIONS
 62
3
100
AcDbText
 10
85.0
 20
-18.0
 30
0.0
 40
2.5
  1
Led strip
100
AcDbText
  0
TEXT
  5
144
330
17
100
AcDbEntity
  8
3-ANNOTATIONS
 62
3
100
AcDbText
 10
-45.0
 20
-32.0
 30
0.0
 40
2.5
  1
Lightbox
100
AcDbText
  0
TEXT
  5
145
330
17
100
AcDbEntity
  8
3-ANNOTATIONS
 62
3
100
AcDbText
 10
20.0
 20
-32.0
 30
0.0
 40
2.5
  1
Light inside
100
AcDbText
  0
TEXT
  5
146
330
17
100
AcDbEntity
  8
3-ANNOTATIONS
 62
3
100
AcDbText
 10
85.0
 20
-32.0
 30
0.0
 40
2.5
  1
Neon Sign
100
AcDbText
  0
ENDSEC
  0
SECTION
  2
OBJECTS
  0
DICTIONARY
  5
A
330
0
100
AcDbDictionary
281
1
  3
ACAD_COLOR
350
B
  3
ACAD_GROUP
350
C
  3
ACAD_LAYOUT
350
D
  3
ACAD_MATERIAL
350
E
  3
ACAD_MLEADERSTYLE
350
F
  3
ACAD_MLINESTYLE
350
10
  3
ACAD_PLOTSETTINGS
350
11
  3
ACAD_PLOTSTYLENAME
350
12
  3
ACAD_SCALELIST
350
14
  3
ACAD_TABLESTYLE
350
15
  3
ACAD_VISUALSTYLE
350
16
  3
EZDXF_META
350
2D
  0
DICTIONARY
  5
B
330
A
100
AcDbDictionary
281
1
  0
DICTIONARY
  5
C
330
A
100
AcDbDictionary
281
1
  0
DICTIONARY
  5
D
330
A
100
AcDbDictionary
281
1
  3
Model
350
1A
  3
Layout1
350
1E
  0
DICTIONARY
  5
E
330
A
100
AcDbDictionary
281
1
  3
ByBlock
350
1F
  3
ByLayer
350
20
  3
Global
350
21
  0
DICTIONARY
  5
F
330
A
100
AcDbDictionary
281
1
  3
Standard
350
2C
  0
DICTIONARY
  5
10
330
A
100
AcDbDictionary
281
1
  3
Standard
350
22
  0
DICTIONARY
  5
11
330
A
100
AcDbDictionary
281
1
  0
ACDBDICTIONARYWDFLT
  5
12
330
A
100
AcDbDictionary
281
1
  3
Normal
350
13
100
AcDbDictionaryWithDefault
340
13
  0
ACDBPLACEHOLDER
  5
13
330
12
  0
DICTIONARY
  5
14
330
A
100
AcDbDictionary
281
1
  0
DICTIONARY
  5
15
330
A
100
AcDbDictionary
281
1
  0
DICTIONARY
  5
16
330
A
100
AcDbDictionary
281
1
  0
LAYOUT
  5
1A
330
D
100
AcDbPlotSettings
  1

  4
A3
  6

 40
7.5
 41
20.0
 42
7.5
 43
20.0
 44
420.0
 45
297.0
 46
0.0
 47
0.0
 48
0.0
 49
0.0
140
0.0
141
0.0
142
1.0
143
1.0
 70
1024
 72
1
 73
0
 74
5
  7

 75
16
 76
0
 77
2
 78
300
147
1.0
148
0.0
149
0.0
100
AcDbLayout
  1
Model
 70
1
 71
0
 10
0.0
 20
0.0
 11
420.0
 21
297.0
 12
0.0
 22
0.0
 32
0.0
 14
1e+20
 24
1e+20
 34
1e+20
 15
-1e+20
 25
-1e+20
 35
-1e+20
146
0.0
 13
0.0
 23
0.0
 33
0.0
 16
1.0
 26
0.0
 36
0.0
 17
0.0
 27
1.0
 37
0.0
 76
1
330
17
  0
LAYOUT
  5
1E
330
D
100
AcDbPlotSettings
  1

  4
A3
  6

 40
7.5
 41
20.0
 42
7.5
 43
20.0
 44
420.0
 45
297.0
 46
0.0
 47
0.0
 48
0.0
 49
0.0
140
0.0
141
0.0
142
1.0
143
1.0
 70
0
 72
1
 73
0
 74
5
  7

 75
16
 76
0
 77
2
 78
300
147
1.0
148
0.0
149
0.0
100
AcDbLayout
  1
Layout1
 70
1
 71
1
 10
0.0
 20
0.0
 11
420.0
 21
297.0
 12
0.0
 22
0.0
 32
0.0
 14
1e+20
 24
1e+20
 34
1e+20
 15
-1e+20
 25
-1e+20
 35
-1e+20
146
0.0
 13
0.0
 23
0.0
 33
0.0
 16
1.0
 26
0.0
 36
0.0
 17
0.0
 27
1.0
 37
0.0
 76
1
330
1B
  0
MATERIAL
  5
1F
102
{ACAD_REACTORS
330
E
102
}
330
E
100
AcDbMaterial
  1
ByBlock
  2

 70
0
 40
1.0
 71
1
 41
1.0
 91
-1023410177
 42
1.0
 72
1
  3

 73
1
 74
1
 75
1
 44
0.5
 73
0
 45
1.0
 46
1.0
 77
1
  4

 78
1
 79
1
170
1
 48
1.0
171
1
  6

172
1
173
1
174
1
140
1.0
141
1.0
175
1
  7

176
1
177
1
178
1
143
1.0
179
1
  8

270
1
271
1
272
1
145
1.0
146
1.0
273
1
  9

274
1
275
1
276
1
 42
1.0
 72
1
  3

 73
1
 74
1
 75
1
 94
63
  0
MATERIAL
  5
20
102
{ACAD_REACTORS
330
E
102
}
330
E
100
AcDbMaterial
  1
ByLayer
  2

 70
0
 40
1.0
 71
1
 41
1.0
 91
-1023410177
 42
1.0
 72
1
  3

 73
1
 74
1
 75
1
 44
0.5
 73
0
 45
1.0
 46
1.0
 77
1
  4

 78
1
 79
1
170
1
 48
1.0
171
1
  6

172
1
173
1
174
1
140
1.0
141
1.0
175
1
  7

176
1
177
1
178
1
143
1.0
179
1
  8

270
1
271
1
272
1
145
1.0
146
1.0
273
1
  9

274
1
275
1
276
1
 42
1.0
 72
1
  3

 73
1
 74
1
 75
1
 94
63
  0
MATERIAL
  5
21
102
{ACAD_REACTORS
330
E
102
}
330
E
100
AcDbMaterial
  1
Global
  2

 70
0
 40
1.0
 71
1
 41
1.0
 91
-1023410177
 42
1.0
 72
1
  3

 73
1
 74
1
 75
1
 44
0.5
 73
0
 45
1.0
 46
1.0
 77
1
  4

 78
1
 79
1
170
1
 48
1.0
171
1
  6

172
1
173
1
174
1
140
1.0
141
1.0
175
1
  7

176
1
177
1
178
1
143
1.0
179
1
  8

270
1
271
1
272
1
145
1.0
146
1.0
273
1
  9

274
1
275
1
276
1
 42
1.0
 72
1
  3

 73
1
 74
1
 75
1
 94
63
  0
MLINESTYLE
  5
22
102
{ACAD_REACTORS
330
10
102
}
330
10
100
AcDbMlineStyle
  2
Standard
 70
0
  3

 62
256
 51
90.0
 52
90.0
 71
2
 49
0.5
 62
256
  6
BYLAYER
 49
-0.5
 62
256
  6
BYLAYER
  0
MLEADERSTYLE
  5
2C
102
{ACAD_REACTORS
330
F
102
}
330
F
100
AcDbMLeaderStyle
179
2
170
2
171
1
172
0
 90
2
 40
0.0
 41
0.0
173
1
 91
-1056964608
 92
-2
290
1
 42
2.0
291
1
 43
8.0
  3
Standard
 44
4.0
300

342
29
174
1
175
1
176
0
178
1
 93
-1056964608
 45
4.0
292
0
297
0
 46
4.0
 94
-1056964608
 47
1.0
 49
1.0
140
1.0
294
1
141
0.0
177
0
142
1.0
295
0
296
0
143
3.75
271
0
272
9
273
9
  0
DICTIONARY
  5
2D
330
A
100
AcDbDictionary
280
1
281
1
  3
CREATED_BY_EZDXF
350
2E
  3
WRITTEN_BY_EZDXF
350
149
  0
DICTIONARYVAR
  5
2E
330
2D
100
DictionaryVariables
280
0
  1
1.4.4 @ 2026-05-19T16:44:37.806641+00:00
  0
DICTIONARYVAR
  5
149
330
2D
100
DictionaryVariables
280
0
  1
1.4.4 @ 2026-05-19T16:44:37.936396+00:00
  0
ENDSEC
  0
EOF
